<svg id="svg" version="1.1" xmlns="http://www.w3.org/2000/svg" xmlns:xlink="http://www.w3.org/1999/xlink" width="400" height="40.32" viewBox="0, 0, 400,40.32"><g id="svgg"><path id="path0" d="M44.663 0.587 C 44.369 0.942,44.601 1.109,44.957 0.799 C 45.118 0.658,45.362 0.502,45.500 0.452 C 45.646 0.398,45.569 0.354,45.312 0.346 C 45.071 0.339,44.779 0.448,44.663 0.587 M42.958 1.180 C 42.798 1.273,42.667 1.421,42.667 1.508 C 42.667 1.791,43.081 1.676,43.295 1.333 C 43.522 0.969,43.410 0.917,42.958 1.180 M39.875 2.339 C 39.452 2.509,39.370 2.833,39.750 2.833 C 39.887 2.833,40.000 2.756,40.000 2.661 C 40.000 2.567,40.169 2.421,40.375 2.339 C 40.581 2.256,40.637 2.188,40.500 2.188 C 40.362 2.188,40.081 2.256,39.875 2.339 M37.810 3.161 L 37.417 3.489 37.792 3.494 C 38.008 3.498,38.167 3.399,38.167 3.262 C 38.167 3.130,38.335 2.991,38.542 2.951 C 38.904 2.881,38.904 2.878,38.560 2.856 C 38.364 2.844,38.027 2.981,37.810 3.161 M36.625 3.680 C 36.268 3.888,36.244 4.167,36.583 4.167 C 36.721 4.167,36.833 4.060,36.833 3.929 C 36.833 3.798,36.965 3.657,37.125 3.615 C 37.329 3.561,37.342 3.534,37.167 3.524 C 37.029 3.517,36.785 3.587,36.625 3.680 M35.250 4.500 C 35.018 4.756,35.003 4.833,35.184 4.833 C 35.314 4.833,35.513 4.683,35.628 4.500 C 35.742 4.317,35.772 4.167,35.694 4.167 C 35.616 4.167,35.416 4.317,35.250 4.500 M49.333 5.083 C 49.218 5.223,49.200 5.333,49.293 5.333 C 49.384 5.333,49.553 5.221,49.667 5.083 C 49.782 4.944,49.800 4.833,49.707 4.833 C 49.616 4.833,49.447 4.946,49.333 5.083 M32.611 5.611 C 32.419 5.803,32.490 6.000,32.750 6.000 C 32.887 6.000,33.000 5.888,33.000 5.750 C 33.000 5.490,32.803 5.419,32.611 5.611 M30.576 6.844 C 30.400 7.130,30.558 7.158,30.907 6.903 C 31.177 6.705,31.186 6.667,30.958 6.667 C 30.809 6.667,30.637 6.747,30.576 6.844 M42.955 7.000 C 42.762 7.225,42.737 7.333,42.878 7.333 C 42.993 7.333,43.180 7.183,43.295 7.000 C 43.409 6.817,43.444 6.667,43.372 6.667 C 43.300 6.667,43.112 6.817,42.955 7.000 M29.169 7.625 C 29.171 7.805,29.219 7.846,29.294 7.733 C 29.362 7.632,29.529 7.507,29.667 7.455 C 29.834 7.391,29.792 7.355,29.542 7.346 C 29.290 7.338,29.168 7.429,29.169 7.625 M41.292 7.681 C 41.131 7.856,41.042 8.000,41.094 8.000 C 41.311 8.000,41.833 7.643,41.833 7.494 C 41.833 7.250,41.616 7.325,41.292 7.681 M39.333 8.270 C 39.333 8.492,39.379 8.503,39.583 8.333 C 39.721 8.219,39.833 8.098,39.833 8.063 C 39.833 8.028,39.721 8.000,39.583 8.000 C 39.446 8.000,39.333 8.122,39.333 8.270 M49.375 8.777 C 49.150 8.868,49.084 9.333,49.296 9.333 C 49.368 9.333,49.554 9.183,49.711 9.000 C 49.992 8.672,49.857 8.583,49.375 8.777 M58.493 8.987 C 58.595 9.178,58.751 9.333,58.839 9.333 C 59.125 9.333,59.010 9.017,58.654 8.827 C 58.338 8.657,58.324 8.671,58.493 8.987 M37.039 9.500 C 36.865 9.778,36.872 9.833,37.082 9.833 C 37.222 9.833,37.333 9.686,37.333 9.500 C 37.333 9.317,37.314 9.167,37.290 9.167 C 37.266 9.167,37.153 9.317,37.039 9.500 M47.292 9.284 C 47.498 9.324,47.835 9.324,48.042 9.284 C 48.248 9.245,48.079 9.212,47.667 9.212 C 47.254 9.212,47.085 9.245,47.292 9.284 M45.833 9.604 C 45.833 9.835,45.875 9.842,46.125 9.651 C 46.285 9.528,46.448 9.406,46.486 9.380 C 46.524 9.355,46.393 9.333,46.194 9.333 C 45.972 9.333,45.833 9.438,45.833 9.604 M59.833 9.569 C 59.833 9.715,59.952 9.833,60.097 9.833 C 60.242 9.833,60.331 9.744,60.295 9.635 C 60.192 9.326,59.833 9.275,59.833 9.569 M80.397 9.575 C 80.346 9.708,80.360 9.908,80.428 10.018 C 80.506 10.145,80.481 10.175,80.360 10.100 C 80.193 9.997,78.695 9.935,77.542 9.984 C 77.334 9.993,77.167 10.107,77.167 10.240 C 77.167 10.397,76.951 10.498,76.542 10.532 C 76.123 10.566,75.917 10.665,75.917 10.831 C 75.917 10.967,75.767 11.108,75.585 11.143 C 75.403 11.178,75.155 11.348,75.034 11.520 C 74.913 11.692,74.631 11.833,74.407 11.833 C 74.111 11.833,74.000 11.924,74.000 12.167 C 74.000 12.389,73.889 12.500,73.667 12.500 C 73.444 12.500,73.333 12.611,73.333 12.833 C 73.333 13.056,73.222 13.167,73.000 13.167 C 72.817 13.167,72.667 13.277,72.667 13.411 C 72.667 13.545,72.517 13.735,72.333 13.833 C 72.150 13.931,72.000 14.084,72.000 14.173 C 72.000 14.261,71.843 14.490,71.651 14.682 C 71.382 14.951,71.315 15.192,71.359 15.735 C 71.411 16.374,71.385 16.432,71.064 16.371 C 70.747 16.310,70.716 16.370,70.758 16.964 C 70.796 17.495,70.751 17.621,70.528 17.604 C 69.978 17.563,69.965 24.093,70.514 24.509 C 70.778 24.709,70.830 24.873,70.741 25.228 C 70.645 25.607,70.687 25.703,70.979 25.780 C 71.251 25.851,71.333 26.002,71.333 26.430 C 71.333 26.811,71.436 27.043,71.656 27.161 C 71.833 27.256,72.002 27.539,72.031 27.792 C 72.070 28.136,72.187 28.264,72.500 28.308 C 73.078 28.388,73.333 28.636,73.333 29.119 C 73.333 29.391,73.447 29.561,73.667 29.618 C 73.850 29.666,74.000 29.803,74.000 29.923 C 74.000 30.042,74.233 30.191,74.517 30.254 C 74.801 30.316,75.182 30.515,75.363 30.697 C 75.544 30.878,75.790 30.988,75.909 30.943 C 76.037 30.894,76.117 30.974,76.104 31.138 C 76.089 31.347,76.248 31.430,76.741 31.470 C 77.130 31.502,77.512 31.655,77.677 31.845 C 77.884 32.084,78.174 32.167,78.805 32.167 C 79.484 32.167,79.691 32.234,79.833 32.500 C 80.105 33.007,84.401 33.007,85.045 32.500 C 85.382 32.235,85.722 32.167,86.695 32.167 C 87.739 32.167,87.950 32.118,88.128 31.833 C 88.282 31.587,88.517 31.500,89.030 31.500 C 89.454 31.500,89.848 31.388,90.042 31.212 C 90.344 30.939,90.369 30.939,90.522 31.212 C 90.611 31.370,90.792 31.500,90.925 31.500 C 91.058 31.500,91.167 31.616,91.167 31.758 C 91.167 32.628,92.706 33.102,93.303 32.415 C 93.895 31.735,93.866 24.246,93.270 23.685 C 92.619 23.073,91.475 23.235,91.237 23.972 C 91.138 24.278,90.958 24.590,90.836 24.665 C 90.715 24.740,90.622 25.034,90.630 25.317 C 90.641 25.721,90.574 25.833,90.322 25.833 C 90.111 25.833,90.000 25.948,90.000 26.167 C 90.000 26.389,89.889 26.500,89.667 26.500 C 89.444 26.500,89.333 26.611,89.333 26.833 C 89.333 27.019,89.222 27.167,89.083 27.167 C 88.854 27.167,88.757 27.370,88.818 27.721 C 88.831 27.796,88.772 27.815,88.686 27.762 C 88.450 27.616,88.000 27.838,88.000 28.101 C 88.000 28.229,87.898 28.333,87.772 28.333 C 87.647 28.333,87.354 28.483,87.121 28.667 C 86.888 28.850,86.578 29.000,86.432 29.000 C 86.278 29.000,86.167 29.140,86.167 29.333 C 86.167 29.605,86.056 29.667,85.568 29.667 C 85.178 29.667,84.874 29.781,84.693 29.995 C 84.454 30.279,84.192 30.325,82.750 30.339 C 80.332 30.361,80.381 30.368,80.285 30.000 C 80.218 29.745,80.058 29.667,79.599 29.667 C 79.111 29.667,79.000 29.605,79.000 29.333 C 79.000 29.111,78.889 29.000,78.667 29.000 C 78.408 29.000,78.333 28.889,78.333 28.506 C 78.333 28.182,78.218 27.950,78.000 27.833 C 77.817 27.735,77.667 27.545,77.667 27.411 C 77.667 27.277,77.554 27.167,77.417 27.167 C 77.241 27.167,77.167 26.989,77.167 26.568 C 77.167 26.109,77.089 25.948,76.833 25.882 C 76.540 25.805,76.500 25.654,76.500 24.632 C 76.500 23.609,76.460 23.458,76.167 23.382 C 75.630 23.241,75.640 19.048,76.179 18.363 C 76.405 18.075,76.500 17.691,76.500 17.061 C 76.500 16.390,76.560 16.167,76.742 16.167 C 76.887 16.167,77.028 15.935,77.092 15.595 C 77.151 15.280,77.305 14.983,77.433 14.933 C 77.562 14.884,77.667 14.732,77.667 14.594 C 77.667 14.457,77.817 14.265,78.000 14.167 C 78.218 14.050,78.333 13.818,78.333 13.494 C 78.333 13.111,78.408 13.000,78.667 13.000 C 78.852 13.000,79.000 12.889,79.000 12.750 C 79.000 12.607,79.161 12.492,79.375 12.482 C 79.581 12.473,79.862 12.448,80.000 12.427 C 80.137 12.407,80.381 12.378,80.542 12.362 C 80.702 12.346,80.833 12.221,80.833 12.083 C 80.833 11.715,84.797 11.712,84.938 12.080 C 84.995 12.226,85.360 12.370,85.840 12.433 C 86.288 12.493,86.686 12.642,86.735 12.770 C 86.783 12.897,86.938 13.000,87.078 13.000 C 87.218 13.000,87.333 13.120,87.333 13.266 C 87.333 13.412,87.481 13.570,87.661 13.617 C 87.841 13.664,88.033 13.840,88.086 14.008 C 88.153 14.218,88.377 14.330,88.800 14.365 C 89.390 14.414,89.414 14.440,89.361 14.970 C 89.316 15.417,89.373 15.542,89.653 15.615 C 89.850 15.666,90.000 15.842,90.000 16.019 C 90.000 16.307,90.186 16.415,90.563 16.346 C 90.643 16.331,90.667 16.480,90.616 16.676 C 90.496 17.133,90.638 17.500,90.934 17.500 C 91.062 17.500,91.167 17.653,91.167 17.841 C 91.167 18.157,91.253 18.178,92.368 18.132 L 93.569 18.083 93.712 17.417 C 93.883 16.614,93.804 10.248,93.621 10.065 C 93.327 9.772,91.288 9.888,91.206 10.202 C 91.093 10.634,88.725 10.643,88.410 10.213 C 88.233 9.971,87.927 9.930,86.434 9.946 C 85.091 9.961,84.667 9.914,84.667 9.751 C 84.667 9.262,80.581 9.094,80.397 9.575 M42.512 9.980 C 41.996 10.124,41.857 10.500,42.319 10.500 C 42.510 10.500,42.667 10.423,42.667 10.328 C 42.667 10.233,42.835 10.088,43.042 10.005 C 43.476 9.831,43.108 9.813,42.512 9.980 M60.708 10.013 C 60.869 10.107,61.006 10.311,61.013 10.467 C 61.022 10.649,61.057 10.674,61.112 10.536 C 61.212 10.288,60.880 9.831,60.605 9.838 C 60.501 9.841,60.548 9.920,60.708 10.013 M198.167 10.823 C 198.167 12.222,198.386 12.385,200.292 12.400 L 200.667 12.404 200.667 21.035 L 200.667 29.667 200.109 29.667 C 199.763 29.667,199.437 29.793,199.250 30.000 C 199.084 30.183,198.772 30.333,198.558 30.333 C 198.195 30.333,198.167 30.399,198.167 31.250 L 198.167 32.167 206.349 32.167 C 214.391 32.167,214.533 32.161,214.618 31.833 C 214.692 31.553,214.846 31.500,215.594 31.500 C 216.227 31.500,216.525 31.425,216.629 31.240 C 216.762 31.002,217.071 30.880,217.625 30.846 C 217.740 30.839,217.833 30.730,217.833 30.605 C 217.833 30.467,218.098 30.334,218.500 30.269 C 218.931 30.200,219.167 30.075,219.167 29.915 C 219.167 29.778,219.316 29.667,219.500 29.667 C 219.715 29.667,219.833 29.556,219.833 29.353 C 219.833 29.179,219.982 29.000,220.167 28.952 C 220.350 28.904,220.500 28.745,220.500 28.599 C 220.500 28.444,220.639 28.333,220.833 28.333 C 221.031 28.333,221.167 28.222,221.167 28.060 C 221.167 27.910,221.283 27.702,221.424 27.598 C 221.566 27.495,221.695 27.237,221.711 27.025 C 221.727 26.813,221.873 26.568,222.036 26.480 C 222.230 26.377,222.333 26.128,222.333 25.764 C 222.333 25.353,222.418 25.183,222.654 25.122 C 223.161 24.989,223.173 17.645,222.667 17.211 C 222.483 17.054,222.333 16.793,222.333 16.630 C 222.333 16.467,222.183 16.183,222.000 16.000 C 221.817 15.817,221.667 15.629,221.667 15.583 C 221.667 15.537,221.667 15.387,221.667 15.250 C 221.667 15.112,221.554 15.000,221.417 15.000 C 221.279 15.000,221.167 14.856,221.167 14.681 C 221.167 14.291,219.691 12.955,219.388 13.071 C 219.269 13.117,219.179 13.101,219.188 13.036 C 219.243 12.670,219.130 12.500,218.833 12.500 C 218.611 12.500,218.500 12.389,218.500 12.167 C 218.500 11.899,218.389 11.833,217.936 11.833 C 217.512 11.833,217.351 11.750,217.285 11.500 C 217.226 11.275,217.058 11.167,216.767 11.167 C 216.517 11.167,216.249 11.027,216.128 10.833 C 215.986 10.605,215.739 10.500,215.348 10.500 C 215.034 10.500,214.631 10.369,214.454 10.208 C 214.158 9.940,213.484 9.913,206.149 9.877 L 198.167 9.837 198.167 10.823 M24.534 10.613 C 24.161 10.762,23.264 11.653,23.374 11.763 C 23.432 11.821,23.675 11.673,23.914 11.434 C 24.153 11.195,24.412 11.000,24.490 11.000 C 24.567 11.000,24.674 10.887,24.727 10.750 C 24.780 10.612,24.806 10.506,24.786 10.513 C 24.766 10.520,24.653 10.565,24.534 10.613 M34.358 10.767 C 34.234 10.907,34.176 11.065,34.229 11.118 C 34.345 11.234,34.833 10.853,34.833 10.646 C 34.833 10.425,34.611 10.482,34.358 10.767 M39.917 10.833 C 39.661 11.115,39.655 11.167,39.873 11.167 C 40.015 11.167,40.172 11.060,40.222 10.930 C 40.272 10.799,40.486 10.659,40.698 10.619 C 41.060 10.550,41.057 10.544,40.651 10.523 C 40.407 10.510,40.087 10.645,39.917 10.833 M38.039 11.500 C 37.924 11.683,37.902 11.833,37.990 11.833 C 38.078 11.833,38.210 11.732,38.283 11.608 C 38.357 11.484,38.529 11.340,38.667 11.288 C 38.847 11.219,38.823 11.189,38.582 11.180 C 38.398 11.173,38.153 11.317,38.039 11.500 M50.333 11.417 C 50.219 11.554,49.966 11.675,49.771 11.686 C 49.536 11.699,49.505 11.729,49.680 11.776 C 50.021 11.868,50.833 11.559,50.833 11.337 C 50.833 11.088,50.572 11.129,50.333 11.417 M55.433 11.400 C 55.483 11.529,55.663 11.671,55.835 11.715 C 56.104 11.786,56.120 11.754,55.950 11.482 C 55.723 11.118,55.300 11.051,55.433 11.400 M35.724 12.091 C 35.573 12.484,35.710 12.504,36.143 12.152 C 36.532 11.838,36.532 11.833,36.180 11.833 C 35.984 11.833,35.778 11.949,35.724 12.091 M212.266 12.744 C 212.369 12.885,212.689 13.000,212.977 13.000 C 213.393 13.000,213.500 13.070,213.500 13.341 C 213.500 13.573,213.593 13.666,213.792 13.632 C 213.986 13.600,214.101 13.708,214.137 13.958 C 214.166 14.165,214.292 14.333,214.417 14.333 C 214.542 14.333,214.692 14.483,214.750 14.667 C 214.808 14.850,214.954 15.000,215.075 15.000 C 215.196 15.000,215.334 15.150,215.382 15.333 C 215.430 15.517,215.588 15.667,215.734 15.667 C 215.927 15.667,216.000 15.827,216.000 16.250 C 216.000 16.611,216.127 16.960,216.333 17.167 C 216.586 17.419,216.667 17.722,216.667 18.415 C 216.667 19.150,216.732 19.372,217.000 19.539 C 217.458 19.825,217.506 22.554,217.057 22.805 C 216.869 22.910,216.756 23.256,216.704 23.889 C 216.652 24.513,216.524 24.911,216.313 25.101 C 216.126 25.271,216.000 25.609,216.000 25.942 C 216.000 26.342,215.924 26.500,215.734 26.500 C 215.588 26.500,215.430 26.650,215.382 26.833 C 215.334 27.017,215.191 27.167,215.064 27.167 C 214.937 27.167,214.833 27.286,214.833 27.432 C 214.833 27.578,214.683 27.737,214.500 27.785 C 214.317 27.833,214.167 27.976,214.167 28.103 C 214.167 28.230,214.017 28.333,213.833 28.333 C 213.611 28.333,213.500 28.444,213.500 28.667 C 213.500 28.973,213.049 29.121,212.444 29.015 C 212.367 29.001,212.265 29.143,212.216 29.329 C 212.140 29.620,211.992 29.667,211.147 29.667 C 210.389 29.667,210.091 29.742,209.833 30.000 C 209.407 30.426,208.802 30.426,208.417 30.000 C 208.228 29.792,207.903 29.667,207.552 29.667 C 207.206 29.667,206.953 29.571,206.894 29.417 C 206.841 29.279,206.693 29.167,206.566 29.167 C 206.370 29.167,206.333 27.847,206.333 20.845 L 206.333 12.523 206.708 12.441 C 207.618 12.241,212.076 12.484,212.266 12.744 M34.000 12.750 C 33.830 12.955,33.843 13.000,34.073 13.000 C 34.227 13.000,34.310 12.931,34.258 12.846 C 34.205 12.761,34.295 12.657,34.456 12.615 C 34.702 12.551,34.706 12.535,34.479 12.519 C 34.330 12.509,34.114 12.612,34.000 12.750 M44.440 12.750 C 44.387 12.887,44.407 13.000,44.485 13.000 C 44.562 13.000,44.719 12.887,44.833 12.750 C 45.002 12.546,44.994 12.500,44.788 12.500 C 44.649 12.500,44.492 12.612,44.440 12.750 M56.844 13.070 C 56.683 13.265,56.709 13.291,56.990 13.217 C 57.179 13.168,57.333 13.062,57.333 12.981 C 57.333 12.756,57.064 12.805,56.844 13.070 M29.083 14.000 C 29.019 14.202,28.831 14.333,28.605 14.333 C 28.236 14.333,27.833 14.611,27.833 14.867 C 27.833 15.108,28.508 15.006,28.606 14.750 C 28.659 14.612,28.788 14.498,28.893 14.495 C 29.204 14.486,29.741 13.667,29.436 13.667 C 29.300 13.667,29.142 13.817,29.083 14.000 M30.792 13.782 C 30.631 13.823,30.500 13.976,30.500 14.121 C 30.500 14.358,30.530 14.359,30.792 14.131 C 30.952 13.991,31.196 13.835,31.333 13.785 C 31.657 13.666,31.244 13.663,30.792 13.782 M40.292 14.028 C 40.070 14.260,40.055 14.333,40.232 14.333 C 40.360 14.333,40.512 14.210,40.569 14.059 C 40.715 13.679,40.633 13.670,40.292 14.028 M56.052 13.958 C 55.995 14.119,55.911 14.318,55.865 14.401 C 55.819 14.484,55.868 14.498,55.974 14.433 C 56.080 14.367,56.167 14.211,56.167 14.086 C 56.167 13.960,56.298 13.823,56.458 13.782 C 56.732 13.710,56.731 13.704,56.453 13.686 C 56.290 13.675,56.109 13.798,56.052 13.958 M61.000 14.381 C 61.000 14.529,60.869 14.727,60.708 14.820 C 60.442 14.975,60.441 14.990,60.697 14.995 C 60.977 15.000,61.285 14.397,61.099 14.210 C 61.044 14.155,61.000 14.232,61.000 14.381 M49.000 14.454 C 49.000 14.530,49.301 14.563,49.670 14.528 C 50.076 14.490,50.448 14.553,50.614 14.691 C 50.847 14.883,50.876 14.880,50.806 14.667 C 50.718 14.398,49.000 14.196,49.000 14.454 M55.382 14.667 C 55.334 14.850,55.199 15.000,55.083 15.000 C 54.967 15.000,54.830 15.163,54.778 15.361 C 54.699 15.662,54.767 15.632,55.175 15.184 C 55.635 14.680,55.796 14.333,55.568 14.333 C 55.513 14.333,55.430 14.483,55.382 14.667 M139.567 14.454 C 139.466 14.525,139.351 14.683,139.312 14.804 C 139.256 14.980,138.509 15.022,135.704 15.007 L 132.167 14.988 132.167 15.911 L 132.167 16.833 133.167 16.833 C 134.056 16.833,134.167 16.870,134.167 17.167 C 134.167 17.350,134.276 17.500,134.409 17.500 C 134.974 17.500,135.021 27.372,134.458 27.687 C 134.298 27.777,134.167 27.954,134.167 28.080 C 134.167 28.207,134.017 28.358,133.833 28.417 C 133.650 28.475,133.500 28.630,133.500 28.761 C 133.500 28.893,133.380 29.000,133.234 29.000 C 133.088 29.000,132.930 29.150,132.882 29.333 C 132.834 29.517,132.684 29.667,132.549 29.667 C 132.414 29.667,132.179 29.814,132.027 29.995 C 131.787 30.279,131.526 30.325,130.083 30.339 C 126.977 30.367,127.000 30.370,127.000 30.000 C 127.000 29.778,126.889 29.667,126.667 29.667 C 126.444 29.667,126.333 29.556,126.333 29.333 C 126.333 29.150,126.229 29.000,126.102 29.000 C 125.969 29.000,125.824 28.751,125.761 28.417 C 125.695 28.067,125.554 27.833,125.409 27.833 C 125.202 27.833,125.167 27.058,125.167 22.520 C 125.167 16.488,125.108 16.740,126.501 16.814 C 127.660 16.875,127.880 16.384,127.149 15.366 C 126.883 14.996,126.856 14.994,122.816 15.039 L 118.750 15.083 118.750 15.958 L 118.750 16.833 119.356 16.833 C 119.917 16.833,119.971 16.877,120.072 17.417 C 120.138 17.766,120.279 18.000,120.424 18.000 C 120.660 18.000,120.779 22.593,120.669 27.470 C 120.640 28.749,120.665 28.864,120.985 28.948 C 121.252 29.018,121.333 29.171,121.333 29.603 C 121.333 30.056,121.399 30.167,121.667 30.167 C 121.889 30.167,122.000 30.278,122.000 30.500 C 122.000 30.683,122.110 30.833,122.244 30.833 C 122.378 30.833,122.569 30.983,122.667 31.167 C 122.778 31.375,123.016 31.500,123.299 31.500 C 123.573 31.500,123.836 31.633,123.961 31.833 C 124.144 32.127,124.350 32.167,125.668 32.167 C 126.833 32.167,127.167 32.218,127.167 32.397 C 127.167 32.949,129.481 33.019,130.017 32.483 C 130.325 32.175,130.550 32.134,131.851 32.152 C 133.233 32.171,133.333 32.149,133.333 31.836 C 133.333 31.555,133.443 31.500,134.000 31.500 C 134.552 31.500,134.667 31.444,134.667 31.172 C 134.667 30.943,134.745 30.874,134.927 30.944 C 135.100 31.010,135.217 30.925,135.279 30.688 C 135.333 30.485,135.506 30.333,135.686 30.333 C 135.882 30.333,136.000 30.216,136.000 30.019 C 136.000 29.846,136.149 29.667,136.333 29.618 C 136.623 29.543,136.667 29.391,136.667 28.453 C 136.667 27.697,136.742 27.312,136.917 27.167 C 137.127 26.992,137.167 26.289,137.168 22.771 C 137.169 20.468,137.217 18.190,137.275 17.708 L 137.380 16.833 138.023 16.833 C 138.598 16.833,138.667 16.878,138.667 17.250 C 138.667 17.495,138.571 17.667,138.434 17.667 C 138.094 17.667,138.000 18.048,138.000 19.430 L 138.000 20.667 138.958 20.664 C 140.055 20.661,140.239 20.578,140.417 20.000 C 140.550 19.573,141.234 18.833,141.497 18.833 C 141.578 18.833,141.692 18.683,141.750 18.500 C 141.808 18.317,141.963 18.167,142.095 18.167 C 142.226 18.167,142.333 18.017,142.333 17.833 C 142.333 17.556,142.444 17.500,143.000 17.500 C 143.556 17.500,143.667 17.444,143.667 17.167 C 143.667 16.889,143.778 16.833,144.333 16.833 L 145.000 16.833 145.000 23.231 C 145.000 29.488,144.993 29.630,144.667 29.715 C 144.483 29.763,144.333 29.922,144.333 30.068 C 144.333 30.280,144.141 30.333,143.375 30.333 L 142.417 30.333 142.417 31.208 L 142.417 32.083 147.208 32.128 L 152.000 32.172 152.000 31.253 L 152.000 30.333 150.750 30.333 L 149.500 30.333 149.500 23.583 L 149.500 16.833 149.915 16.833 C 150.150 16.833,150.421 16.978,150.539 17.167 C 150.653 17.350,150.874 17.500,151.029 17.500 C 151.184 17.500,151.358 17.650,151.417 17.833 C 151.475 18.017,151.656 18.167,151.819 18.167 C 151.982 18.167,152.251 18.317,152.417 18.500 C 152.583 18.683,152.857 18.833,153.026 18.833 C 153.208 18.833,153.333 18.953,153.333 19.127 C 153.333 19.288,153.483 19.513,153.667 19.628 C 153.858 19.747,154.000 20.017,154.000 20.259 C 154.000 20.677,154.013 20.681,155.208 20.632 L 156.417 20.583 156.466 19.825 C 156.505 19.231,156.441 18.999,156.174 18.757 C 155.663 18.294,155.692 16.983,156.218 16.740 C 156.546 16.588,156.604 16.610,156.625 16.895 C 156.639 17.078,156.767 17.293,156.909 17.372 C 157.249 17.562,157.304 29.796,156.967 30.133 C 156.857 30.243,156.403 30.333,155.958 30.333 L 155.149 30.333 155.200 31.208 L 155.250 32.083 159.667 32.083 L 164.083 32.083 164.134 31.208 L 164.184 30.333 163.175 30.333 C 162.278 30.333,162.167 30.297,162.167 30.000 C 162.167 29.815,162.056 29.667,161.917 29.667 C 161.705 29.667,161.667 29.270,161.667 27.101 L 161.667 24.535 162.321 24.473 C 162.680 24.438,162.971 24.449,162.967 24.497 C 162.934 24.913,163.041 25.167,163.250 25.167 C 163.387 25.167,163.500 25.286,163.500 25.432 C 163.500 25.578,163.650 25.737,163.833 25.785 C 164.081 25.850,164.167 26.012,164.167 26.417 C 164.167 26.821,164.252 26.984,164.500 27.048 C 164.745 27.112,164.833 27.276,164.833 27.667 C 164.833 28.058,164.921 28.221,165.167 28.285 C 165.419 28.351,165.500 28.512,165.500 28.952 C 165.500 29.391,165.581 29.552,165.833 29.618 C 166.068 29.680,166.167 29.846,166.167 30.180 C 166.167 30.490,166.287 30.719,166.513 30.840 C 166.714 30.948,166.821 31.126,166.767 31.267 C 166.449 32.096,166.941 32.167,173.011 32.167 C 179.080 32.167,179.238 32.146,179.418 31.328 C 179.579 30.593,179.285 30.333,178.291 30.333 L 177.456 30.333 177.560 29.708 C 177.617 29.365,177.664 28.915,177.665 28.708 C 177.666 28.487,177.769 28.333,177.917 28.333 C 178.056 28.333,178.167 28.185,178.167 28.000 C 178.167 27.412,183.646 27.494,184.242 28.091 C 184.476 28.324,184.667 28.618,184.667 28.744 C 184.667 29.156,184.864 29.500,185.101 29.500 C 185.238 29.500,185.333 29.672,185.333 29.917 C 185.333 30.315,185.289 30.333,184.325 30.333 L 183.316 30.333 183.366 31.208 L 183.417 32.083 187.860 32.128 C 192.870 32.178,192.897 32.172,192.800 31.021 C 192.750 30.417,192.750 30.417,191.875 30.366 C 191.136 30.324,191.000 30.265,191.000 29.991 C 191.000 29.778,190.886 29.667,190.667 29.667 C 190.409 29.667,190.333 29.556,190.333 29.175 C 190.333 28.902,190.217 28.618,190.073 28.537 C 189.822 28.397,189.707 28.080,189.679 27.458 C 189.672 27.298,189.563 27.167,189.435 27.167 C 189.302 27.167,189.157 26.915,189.093 26.575 C 189.032 26.249,188.873 25.941,188.741 25.890 C 188.598 25.835,188.500 25.573,188.500 25.243 C 188.500 24.836,188.412 24.661,188.167 24.583 C 187.919 24.505,187.833 24.331,187.833 23.905 C 187.833 23.444,187.769 23.333,187.500 23.333 C 187.229 23.333,187.167 23.222,187.167 22.734 C 187.167 22.276,187.089 22.115,186.833 22.048 C 186.574 21.981,186.500 21.821,186.500 21.332 C 186.500 20.945,186.410 20.668,186.266 20.612 C 186.137 20.563,185.981 20.292,185.919 20.011 C 185.857 19.730,185.700 19.500,185.570 19.500 C 185.431 19.500,185.333 19.334,185.333 19.097 C 185.333 18.522,185.168 18.167,184.899 18.167 C 184.750 18.167,184.667 17.981,184.667 17.651 C 184.667 17.276,184.576 17.112,184.333 17.048 C 184.083 16.983,184.000 16.821,184.000 16.397 C 184.000 15.745,183.011 14.663,182.424 14.672 C 181.976 14.679,181.500 15.051,181.500 15.393 C 181.500 15.556,181.364 15.667,181.167 15.667 C 180.944 15.667,180.833 15.778,180.833 16.000 C 180.833 16.222,180.722 16.333,180.500 16.333 C 180.275 16.333,180.167 16.444,180.167 16.677 C 180.167 16.886,180.094 16.975,179.981 16.905 C 179.693 16.727,179.505 17.174,179.503 18.042 C 179.501 18.477,179.423 18.833,179.329 18.833 C 179.035 18.833,178.840 19.610,178.998 20.159 C 179.079 20.442,179.093 20.641,179.029 20.601 C 178.801 20.461,178.375 20.930,178.262 21.447 C 178.198 21.736,178.038 22.014,177.906 22.064 C 177.760 22.120,177.667 22.386,177.667 22.745 C 177.667 23.222,177.604 23.333,177.333 23.333 C 177.040 23.333,177.000 23.444,177.000 24.250 C 177.000 25.056,176.960 25.167,176.667 25.167 C 176.389 25.167,176.333 25.278,176.333 25.833 C 176.333 26.389,176.278 26.500,176.000 26.500 C 175.817 26.500,175.676 26.556,175.686 26.625 C 175.773 27.176,175.633 27.833,175.429 27.833 C 175.145 27.833,174.626 28.800,174.778 29.046 C 174.842 29.149,174.803 29.167,174.681 29.092 C 174.552 29.012,174.444 29.094,174.386 29.317 C 174.336 29.509,174.209 29.667,174.104 29.667 C 173.999 29.667,173.820 29.817,173.705 30.000 C 173.191 30.824,171.167 29.922,171.167 28.869 C 171.167 28.669,171.026 28.478,170.833 28.417 C 170.650 28.358,170.500 28.201,170.500 28.067 C 170.500 27.933,170.387 27.780,170.250 27.727 C 170.112 27.674,170.000 27.495,170.000 27.329 C 170.000 26.861,169.819 26.500,169.584 26.500 C 169.467 26.500,169.321 26.238,169.261 25.917 C 169.201 25.596,169.078 25.333,168.988 25.333 C 168.899 25.333,168.751 25.138,168.660 24.900 C 168.552 24.616,168.410 24.499,168.248 24.561 C 168.070 24.629,168.000 24.540,168.000 24.245 C 168.000 23.899,168.080 23.833,168.497 23.833 C 168.856 23.833,169.203 23.633,169.747 23.112 L 170.500 22.390 170.500 20.351 C 170.500 18.366,170.333 17.544,169.974 17.766 C 169.863 17.835,169.835 17.759,169.897 17.561 C 170.043 17.103,169.175 16.333,168.515 16.333 C 168.111 16.333,168.000 16.261,168.000 16.000 C 168.000 15.730,167.889 15.667,167.417 15.667 C 167.053 15.667,166.706 15.539,166.496 15.329 C 166.168 15.001,165.991 14.993,160.660 15.037 C 155.589 15.080,155.155 15.061,155.072 14.797 C 154.920 14.317,153.892 14.227,153.326 14.646 C 152.695 15.112,141.277 15.211,140.935 14.752 C 140.718 14.461,139.830 14.268,139.567 14.454 M300.615 14.467 C 300.358 14.499,300.106 14.631,300.056 14.762 C 299.988 14.939,299.644 15.000,298.717 15.000 C 297.609 15.000,297.459 15.037,297.382 15.333 C 297.316 15.586,297.154 15.667,296.715 15.667 C 296.276 15.667,296.114 15.747,296.048 16.000 C 296.000 16.184,295.821 16.333,295.647 16.333 C 295.445 16.333,295.333 16.451,295.333 16.665 C 295.333 16.878,295.230 16.987,295.042 16.972 C 294.418 16.919,294.167 17.012,294.167 17.293 C 294.167 17.455,294.017 17.680,293.833 17.795 C 293.645 17.912,293.500 18.183,293.500 18.418 C 293.500 18.722,293.411 18.833,293.167 18.833 C 292.951 18.833,292.833 18.944,292.833 19.147 C 292.833 19.321,292.684 19.500,292.500 19.548 C 292.245 19.615,292.167 19.776,292.167 20.234 C 292.167 20.633,292.090 20.833,291.936 20.833 C 291.587 20.833,291.505 21.381,291.502 23.708 L 291.500 25.833 290.999 25.833 C 290.569 25.833,290.459 25.929,290.231 26.500 C 290.084 26.867,289.897 27.167,289.815 27.167 C 289.734 27.167,289.667 27.317,289.667 27.500 C 289.667 27.715,289.556 27.833,289.353 27.833 C 289.179 27.833,289.000 27.982,288.952 28.167 C 288.904 28.350,288.745 28.500,288.599 28.500 C 288.453 28.500,288.333 28.604,288.333 28.731 C 288.333 28.857,288.183 29.000,288.000 29.048 C 287.817 29.096,287.667 29.255,287.667 29.401 C 287.667 29.593,287.506 29.667,287.085 29.667 C 286.683 29.667,286.438 29.770,286.295 30.000 C 286.023 30.435,282.500 30.521,282.500 30.092 C 282.500 29.959,282.386 29.786,282.246 29.708 C 282.025 29.584,281.991 28.773,281.991 23.583 C 281.991 18.394,282.025 17.583,282.246 17.459 C 282.386 17.381,282.500 17.208,282.500 17.075 C 282.500 16.942,282.594 16.827,282.708 16.820 C 282.823 16.812,283.217 16.794,283.583 16.778 C 284.223 16.751,284.252 16.726,284.300 16.146 C 284.395 15.013,284.339 15.000,279.613 15.003 C 275.121 15.005,275.111 15.007,274.936 15.723 C 274.718 16.609,274.919 16.833,275.928 16.833 C 276.722 16.833,276.833 16.874,276.833 17.167 C 276.833 17.389,276.944 17.500,277.167 17.500 C 277.494 17.500,277.500 17.611,277.500 23.564 C 277.500 29.488,277.492 29.630,277.167 29.715 C 276.983 29.763,276.833 29.922,276.833 30.068 C 276.833 30.278,276.645 30.333,275.920 30.333 C 274.895 30.333,274.694 30.597,274.968 31.583 L 275.107 32.083 282.970 32.127 C 290.590 32.169,290.833 32.160,290.833 31.854 C 290.833 31.679,290.981 31.500,291.167 31.452 C 291.445 31.379,291.500 31.224,291.500 30.521 C 291.500 29.849,291.567 29.642,291.833 29.500 C 292.098 29.358,292.167 29.151,292.167 28.494 C 292.167 27.778,292.211 27.667,292.500 27.667 C 292.707 27.667,292.833 27.778,292.833 27.960 C 292.833 28.121,292.983 28.347,293.167 28.461 C 293.351 28.576,293.500 28.850,293.500 29.074 C 293.500 29.331,293.621 29.516,293.833 29.583 C 294.017 29.642,294.167 29.792,294.167 29.919 C 294.167 30.142,294.606 30.445,295.542 30.867 C 295.794 30.980,296.000 31.169,296.000 31.287 C 296.000 31.412,296.204 31.500,296.499 31.500 C 296.817 31.500,297.073 31.621,297.205 31.833 C 297.375 32.105,297.594 32.167,298.389 32.167 C 299.112 32.167,299.474 32.253,299.788 32.500 C 300.358 32.949,301.286 32.936,301.779 32.473 C 302.098 32.173,302.336 32.118,303.178 32.148 C 304.078 32.181,304.203 32.146,304.283 31.843 C 304.350 31.585,304.507 31.500,304.918 31.500 C 305.250 31.500,305.502 31.402,305.560 31.250 C 305.613 31.113,305.771 31.000,305.911 31.000 C 306.052 31.000,306.167 30.858,306.167 30.685 C 306.167 30.458,306.327 30.340,306.745 30.262 C 307.064 30.202,307.383 30.057,307.454 29.939 C 307.525 29.821,307.715 29.677,307.875 29.618 C 308.077 29.543,308.167 29.330,308.167 28.922 C 308.167 28.444,308.230 28.333,308.500 28.333 C 308.724 28.333,308.833 28.222,308.833 27.993 C 308.833 27.806,308.983 27.492,309.167 27.295 C 309.405 27.039,309.500 26.707,309.500 26.130 C 309.500 25.566,309.575 25.294,309.750 25.227 C 309.947 25.151,310.000 24.805,310.000 23.583 C 310.000 22.361,309.947 22.015,309.750 21.940 C 309.575 21.873,309.500 21.599,309.500 21.028 C 309.500 20.464,309.397 20.081,309.167 19.788 C 308.983 19.555,308.833 19.245,308.833 19.099 C 308.833 18.944,308.694 18.833,308.500 18.833 C 308.230 18.833,308.167 18.722,308.167 18.250 C 308.167 17.929,308.095 17.667,308.006 17.667 C 307.918 17.667,307.696 17.505,307.512 17.308 C 307.302 17.083,306.989 16.954,306.672 16.963 C 306.290 16.974,306.167 16.904,306.167 16.675 C 306.167 16.508,306.017 16.333,305.833 16.285 C 305.650 16.237,305.500 16.078,305.500 15.932 C 305.500 15.765,305.356 15.667,305.109 15.667 C 304.894 15.667,304.583 15.517,304.417 15.333 C 304.177 15.068,303.903 15.000,303.078 15.000 C 302.395 15.000,301.975 14.921,301.848 14.768 C 301.613 14.485,301.234 14.392,300.615 14.467 M383.789 14.662 C 383.541 15.015,383.447 15.024,380.101 15.007 L 376.667 14.990 376.667 15.911 L 376.667 16.833 377.375 16.834 C 377.997 16.835,378.132 16.907,378.480 17.418 C 378.698 17.738,378.942 18.000,379.021 18.000 C 379.101 18.000,379.167 19.612,379.167 21.583 C 379.167 23.554,379.103 25.167,379.026 25.167 C 378.815 25.167,378.317 24.571,378.433 24.456 C 378.487 24.401,378.375 24.258,378.183 24.138 C 377.991 24.018,377.833 23.828,377.833 23.716 C 377.833 23.604,377.683 23.431,377.500 23.333 C 377.317 23.235,377.167 23.045,377.167 22.911 C 377.167 22.777,377.063 22.667,376.936 22.667 C 376.809 22.667,376.666 22.517,376.618 22.333 C 376.570 22.150,376.420 22.000,376.285 22.000 C 376.150 22.000,376.000 21.850,375.952 21.667 C 375.904 21.483,375.745 21.333,375.599 21.333 C 375.453 21.333,375.333 21.226,375.333 21.095 C 375.333 20.963,375.183 20.808,375.000 20.750 C 374.817 20.692,374.667 20.553,374.667 20.442 C 374.667 20.331,374.517 20.132,374.333 20.000 C 374.150 19.868,374.000 19.641,374.000 19.497 C 374.000 19.120,373.662 18.833,373.217 18.833 C 372.909 18.833,372.833 18.742,372.833 18.374 C 372.833 17.929,372.068 17.000,371.701 17.000 C 371.612 17.000,371.500 16.850,371.452 16.667 C 371.404 16.483,371.245 16.333,371.099 16.333 C 370.944 16.333,370.833 16.194,370.833 16.000 C 370.833 15.778,370.722 15.667,370.500 15.667 C 370.278 15.667,370.167 15.556,370.167 15.333 C 370.167 15.011,370.056 15.000,366.667 15.000 L 363.167 15.000 363.167 15.924 C 363.167 16.566,363.230 16.840,363.375 16.821 C 364.100 16.727,364.500 16.850,364.500 17.167 C 364.500 17.389,364.611 17.500,364.833 17.500 C 365.160 17.500,365.167 17.611,365.167 22.963 C 365.167 28.220,365.154 28.437,364.833 28.711 C 364.650 28.868,364.500 29.139,364.500 29.312 C 364.500 29.488,364.352 29.667,364.167 29.715 C 363.983 29.763,363.833 29.922,363.833 30.068 C 363.833 30.259,363.674 30.333,363.261 30.333 C 362.593 30.333,362.420 30.655,362.594 31.579 L 362.705 32.173 366.144 32.128 L 369.583 32.083 369.583 31.250 L 369.583 30.417 368.837 30.364 C 367.997 30.304,367.667 30.103,367.667 29.652 C 367.667 29.483,367.517 29.265,367.333 29.167 C 366.823 28.893,366.809 19.315,367.319 19.448 C 367.495 19.494,367.682 19.703,367.734 19.913 C 367.835 20.316,368.649 21.333,368.870 21.333 C 369.088 21.333,369.667 21.985,369.667 22.231 C 369.667 22.357,369.817 22.500,370.000 22.548 C 370.183 22.596,370.333 22.746,370.333 22.882 C 370.333 23.017,370.484 23.167,370.667 23.215 C 370.890 23.273,370.967 23.391,370.900 23.568 C 370.826 23.759,370.896 23.833,371.149 23.833 C 371.359 23.833,371.500 23.940,371.500 24.099 C 371.500 24.245,371.650 24.404,371.833 24.452 C 372.017 24.500,372.167 24.639,372.167 24.762 C 372.167 25.061,372.953 25.833,373.258 25.833 C 373.391 25.833,373.500 25.945,373.500 26.082 C 373.500 26.374,374.486 27.362,374.666 27.250 C 374.734 27.209,374.789 27.304,374.788 27.462 C 374.787 28.146,374.848 28.333,375.072 28.333 C 375.203 28.333,375.358 28.483,375.417 28.667 C 375.475 28.850,375.621 29.000,375.742 29.000 C 375.862 29.000,376.000 29.150,376.048 29.333 C 376.096 29.517,376.255 29.667,376.401 29.667 C 376.547 29.667,376.667 29.786,376.667 29.932 C 376.667 30.078,376.817 30.237,377.000 30.285 C 377.183 30.333,377.333 30.471,377.333 30.592 C 377.333 30.712,377.483 30.858,377.667 30.917 C 377.850 30.975,378.000 31.130,378.000 31.261 C 378.000 31.393,378.148 31.500,378.328 31.500 C 378.550 31.500,378.625 31.580,378.561 31.748 C 378.500 31.908,378.611 32.050,378.877 32.152 C 379.103 32.238,379.333 32.426,379.389 32.571 C 379.452 32.737,379.690 32.832,380.036 32.831 C 381.138 32.826,381.079 33.236,381.130 25.318 C 381.175 18.451,381.192 18.104,381.505 17.706 C 381.686 17.476,381.833 17.186,381.833 17.061 C 381.833 16.910,382.040 16.833,382.449 16.833 C 383.016 16.833,383.039 16.851,382.745 17.066 C 382.466 17.270,382.428 17.505,382.443 18.941 L 382.460 20.583 383.397 20.633 C 384.246 20.679,384.333 20.651,384.333 20.342 C 384.333 20.154,384.441 20.000,384.572 20.000 C 384.703 20.000,384.863 19.835,384.927 19.633 C 385.075 19.167,385.334 18.908,385.799 18.761 C 386.001 18.697,386.167 18.546,386.167 18.425 C 386.167 18.304,386.317 18.166,386.500 18.118 C 386.683 18.070,386.833 17.912,386.833 17.766 C 386.833 17.582,386.986 17.500,387.327 17.500 C 387.651 17.500,387.883 17.385,388.000 17.167 C 388.098 16.983,388.326 16.833,388.506 16.833 C 388.826 16.833,388.833 16.985,388.833 23.583 L 388.833 30.333 387.575 30.333 L 386.316 30.333 386.366 31.208 L 386.417 32.083 391.125 32.128 L 395.833 32.172 395.833 31.261 L 395.833 30.350 394.875 30.300 L 393.917 30.250 393.866 23.542 L 393.814 16.833 394.241 16.833 C 394.494 16.833,394.667 16.928,394.667 17.066 C 394.667 17.320,395.017 17.500,395.514 17.500 C 395.690 17.500,395.833 17.615,395.833 17.755 C 395.833 17.896,395.959 18.059,396.112 18.117 C 396.266 18.176,396.528 18.362,396.696 18.529 C 396.863 18.696,397.188 18.833,397.417 18.833 C 397.782 18.833,397.833 18.906,397.833 19.417 C 397.833 19.877,397.899 20.000,398.148 20.000 C 398.346 20.000,398.454 20.109,398.440 20.292 C 398.421 20.525,398.574 20.593,399.208 20.634 L 400.000 20.685 400.000 18.842 C 400.000 17.479,399.946 17.000,399.792 17.000 C 399.643 17.001,399.598 16.725,399.633 16.042 C 399.682 15.112,399.666 15.072,399.108 14.698 C 398.476 14.275,397.441 14.314,397.267 14.766 C 397.129 15.126,385.733 15.112,385.336 14.752 C 384.835 14.299,384.074 14.254,383.789 14.662 M19.760 14.930 C 19.489 15.128,19.481 15.167,19.708 15.167 C 19.858 15.167,20.030 15.087,20.090 14.989 C 20.267 14.703,20.109 14.675,19.760 14.930 M36.000 15.250 C 36.000 15.406,35.828 15.509,35.542 15.523 C 35.125 15.543,35.119 15.552,35.475 15.620 C 35.728 15.668,35.980 15.572,36.190 15.347 C 36.454 15.064,36.466 15.000,36.256 15.000 C 36.115 15.000,36.000 15.112,36.000 15.250 M48.125 15.180 C 47.768 15.388,47.744 15.667,48.083 15.667 C 48.221 15.667,48.333 15.560,48.333 15.431 C 48.333 15.301,48.427 15.157,48.542 15.110 C 48.656 15.064,48.675 15.023,48.583 15.018 C 48.492 15.014,48.285 15.087,48.125 15.180 M94.418 15.164 C 94.362 15.255,94.393 15.608,94.488 15.949 C 94.616 16.413,94.607 16.603,94.454 16.704 C 94.338 16.782,94.584 16.825,95.029 16.806 C 96.403 16.747,96.333 16.384,96.333 23.570 C 96.333 30.641,96.386 30.333,95.175 30.333 L 94.417 30.333 94.417 31.208 L 94.417 32.083 103.333 32.083 L 112.250 32.083 112.301 31.195 C 112.351 30.314,112.348 30.307,111.884 30.337 C 109.903 30.470,109.667 30.100,109.667 26.865 L 109.667 24.500 112.516 24.500 C 115.224 24.500,115.369 24.484,115.452 24.167 C 115.524 23.888,115.680 23.833,116.394 23.830 C 117.233 23.828,118.000 23.369,118.000 22.871 C 118.000 22.780,118.150 22.666,118.333 22.618 C 118.726 22.516,118.817 21.228,118.458 20.842 C 118.292 20.663,118.292 20.641,118.458 20.735 C 118.862 20.963,118.738 18.047,118.333 17.795 C 118.150 17.680,118.000 17.463,118.000 17.313 C 118.000 17.162,117.850 17.000,117.667 16.952 C 117.483 16.904,117.333 16.745,117.333 16.599 C 117.333 16.407,117.173 16.333,116.750 16.333 C 116.269 16.333,116.167 16.272,116.167 15.984 C 116.167 15.669,116.086 15.640,115.354 15.692 C 114.782 15.733,114.564 15.692,114.617 15.554 C 114.659 15.447,114.542 15.278,114.357 15.179 C 113.912 14.941,94.565 14.927,94.418 15.164 M223.687 15.917 L 223.650 16.833 224.325 16.833 L 225.000 16.833 225.000 23.583 L 225.000 30.333 224.333 30.333 L 223.667 30.333 223.667 31.250 L 223.667 32.167 231.133 32.167 C 236.719 32.167,238.650 32.116,238.800 31.967 C 239.064 31.703,239.058 30.551,238.792 30.444 C 238.625 30.376,238.625 30.357,238.792 30.346 C 238.909 30.339,239.000 30.115,239.000 29.835 C 239.000 29.517,239.121 29.261,239.333 29.128 C 239.981 28.723,239.815 26.633,239.105 26.250 C 238.409 25.875,238.024 26.007,237.892 26.663 C 237.826 26.994,237.691 27.167,237.499 27.167 C 237.337 27.167,237.166 27.317,237.118 27.500 C 237.070 27.683,236.912 27.833,236.766 27.833 C 236.611 27.833,236.500 27.973,236.500 28.167 C 236.500 28.352,236.389 28.500,236.250 28.500 C 236.112 28.500,236.000 28.577,236.000 28.671 C 236.000 28.765,235.813 28.913,235.583 29.000 C 235.354 29.087,235.167 29.273,235.167 29.413 C 235.167 29.586,235.002 29.667,234.651 29.667 C 234.276 29.667,234.112 29.757,234.048 30.000 C 233.967 30.310,233.821 30.333,231.981 30.333 L 230.000 30.333 230.000 27.429 L 230.000 24.524 231.386 24.471 C 232.746 24.418,232.771 24.424,232.700 24.792 C 232.643 25.085,232.704 25.167,232.981 25.167 C 233.176 25.167,233.333 25.273,233.333 25.405 C 233.333 25.537,233.483 25.692,233.667 25.750 C 233.850 25.808,234.000 25.992,234.000 26.158 C 234.000 26.327,234.157 26.502,234.354 26.554 C 234.641 26.629,234.693 26.743,234.633 27.156 L 234.558 27.667 235.529 27.667 L 236.500 27.667 236.495 23.625 C 236.489 19.152,236.468 19.055,235.456 18.891 C 234.800 18.784,234.610 18.964,234.630 19.674 C 234.639 19.995,234.546 20.159,234.322 20.218 C 234.091 20.278,234.000 20.448,234.000 20.818 C 234.000 21.257,233.938 21.333,233.583 21.333 C 233.354 21.333,233.017 21.483,232.833 21.667 C 232.645 21.855,232.278 22.000,231.989 22.000 C 231.343 22.000,230.833 22.268,230.833 22.607 C 230.833 22.777,230.741 22.834,230.570 22.768 C 230.425 22.712,230.237 22.667,230.153 22.667 C 230.066 22.667,230.000 21.410,230.000 19.750 L 230.000 16.833 232.000 16.833 C 233.889 16.833,234.000 16.852,234.000 17.167 C 234.000 17.352,234.111 17.500,234.250 17.500 C 234.489 17.500,234.644 17.610,235.595 18.458 C 235.826 18.665,236.124 18.833,236.258 18.833 C 236.391 18.833,236.500 18.978,236.500 19.155 C 236.500 19.333,236.650 19.525,236.833 19.583 C 237.017 19.642,237.167 19.759,237.167 19.845 C 237.167 20.433,238.432 20.874,239.236 20.566 C 239.573 20.436,239.582 19.609,239.250 19.333 C 239.094 19.203,239.000 18.837,239.000 18.353 C 239.000 17.761,238.922 17.532,238.667 17.372 C 238.414 17.214,238.333 16.983,238.333 16.415 C 238.333 15.877,238.266 15.667,238.095 15.667 C 237.963 15.667,237.808 15.517,237.750 15.333 C 237.646 15.007,237.498 15.000,230.684 15.000 L 223.724 15.000 223.687 15.917 M239.155 15.449 C 238.779 16.437,238.981 16.745,240.042 16.800 L 241.000 16.850 241.000 17.441 C 241.000 17.891,241.079 18.052,241.333 18.118 C 241.518 18.167,241.667 18.346,241.667 18.519 C 241.667 18.807,241.852 18.915,242.229 18.846 C 242.309 18.832,242.325 18.947,242.266 19.102 C 242.083 19.578,242.479 20.500,242.867 20.500 C 243.146 20.500,243.171 20.544,243.006 20.743 C 242.774 21.022,242.908 21.333,243.260 21.333 C 243.419 21.333,243.501 21.516,243.502 21.875 C 243.506 22.667,243.674 23.167,243.936 23.167 C 244.063 23.167,244.167 23.317,244.167 23.500 C 244.167 23.683,244.317 23.983,244.500 24.167 C 244.683 24.350,244.833 24.632,244.833 24.793 C 244.833 24.955,244.983 25.180,245.167 25.295 C 245.374 25.424,245.500 25.683,245.500 25.982 C 245.500 26.321,245.598 26.487,245.833 26.548 C 246.112 26.621,246.167 26.776,246.167 27.484 C 246.167 28.212,246.213 28.333,246.489 28.333 C 246.743 28.333,246.808 28.445,246.796 28.866 C 246.788 29.159,246.872 29.430,246.984 29.467 C 247.097 29.504,247.257 29.715,247.340 29.934 C 247.423 30.154,247.606 30.333,247.746 30.333 C 247.940 30.333,248.000 30.532,248.000 31.172 C 248.000 31.817,248.067 32.036,248.292 32.122 C 248.452 32.184,248.700 32.378,248.843 32.554 C 249.439 33.289,250.500 32.580,250.500 31.446 C 250.500 31.000,250.566 30.876,250.792 30.894 C 251.014 30.911,251.096 30.767,251.135 30.292 C 251.176 29.802,251.257 29.667,251.510 29.667 C 251.758 29.667,251.833 29.550,251.833 29.168 C 251.833 28.850,251.954 28.594,252.167 28.461 C 252.350 28.347,252.500 28.152,252.500 28.028 C 252.500 27.904,252.650 27.612,252.833 27.379 C 253.017 27.146,253.167 26.730,253.167 26.454 C 253.167 26.179,253.278 25.870,253.414 25.768 C 253.622 25.612,253.762 25.218,253.821 24.625 C 253.828 24.556,253.946 24.500,254.083 24.500 C 254.259 24.500,254.333 24.322,254.333 23.901 C 254.333 23.446,254.412 23.282,254.660 23.217 C 254.939 23.144,254.981 23.001,254.952 22.232 C 254.919 21.401,254.945 21.333,255.292 21.333 C 255.556 21.333,255.667 21.235,255.667 21.000 C 255.667 20.817,255.817 20.517,256.000 20.333 C 256.183 20.150,256.333 19.862,256.333 19.692 C 256.333 19.523,256.483 19.249,256.667 19.083 C 256.850 18.917,257.000 18.643,257.000 18.474 C 257.000 18.305,257.112 18.167,257.250 18.167 C 257.387 18.167,257.500 18.055,257.500 17.918 C 257.500 17.781,257.650 17.576,257.833 17.461 C 258.017 17.347,258.167 17.159,258.167 17.043 C 258.167 16.667,260.103 16.770,260.500 17.167 C 260.951 17.617,261.031 29.833,260.583 29.833 C 260.446 29.833,260.333 29.946,260.333 30.083 C 260.333 30.239,260.176 30.333,259.917 30.333 C 259.523 30.333,259.500 30.383,259.500 31.250 L 259.500 32.167 266.833 32.167 L 274.167 32.167 274.167 31.500 C 274.167 31.041,274.239 30.833,274.399 30.833 C 274.725 30.833,274.833 30.457,274.833 29.320 C 274.833 28.444,274.871 28.333,275.167 28.333 C 275.460 28.333,275.500 28.222,275.500 27.417 C 275.500 26.561,275.473 26.500,275.101 26.500 C 274.882 26.500,274.659 26.387,274.606 26.250 C 274.490 25.946,274.066 25.922,273.883 26.208 C 273.810 26.323,273.600 26.499,273.417 26.600 C 273.216 26.710,273.062 26.995,273.031 27.312 C 273.002 27.602,272.910 27.797,272.826 27.745 C 272.607 27.610,271.971 27.985,272.091 28.179 C 272.146 28.268,272.130 28.322,272.054 28.299 C 271.851 28.235,271.000 29.143,271.000 29.424 C 271.000 29.587,270.821 29.667,270.457 29.667 C 270.094 29.667,269.844 29.777,269.705 30.000 C 269.515 30.304,269.317 30.333,267.415 30.333 L 265.333 30.333 265.333 27.417 L 265.333 24.500 266.583 24.500 C 267.611 24.500,267.893 24.559,268.167 24.833 C 268.350 25.017,268.650 25.167,268.833 25.167 C 269.056 25.167,269.167 25.278,269.167 25.502 C 269.167 25.686,269.317 25.965,269.500 26.122 C 269.724 26.314,269.833 26.614,269.833 27.037 L 269.833 27.667 270.750 27.667 L 271.667 27.667 271.667 23.450 C 271.667 20.393,271.612 19.178,271.467 19.033 C 271.311 18.878,271.312 18.833,271.472 18.833 C 271.585 18.833,271.720 18.946,271.773 19.083 C 271.826 19.221,271.973 19.333,272.101 19.333 C 272.229 19.333,272.333 19.483,272.333 19.667 C 272.333 19.889,272.444 20.000,272.667 20.000 C 272.889 20.000,273.000 20.111,273.000 20.333 C 273.000 20.626,273.111 20.667,273.917 20.667 L 274.833 20.667 274.833 19.484 C 274.833 18.442,274.794 18.292,274.500 18.215 C 274.250 18.149,274.167 17.988,274.167 17.564 C 274.167 17.174,274.090 17.000,273.917 17.000 C 273.743 17.000,273.667 16.825,273.667 16.428 C 273.667 16.113,273.593 15.663,273.504 15.427 L 273.341 15.000 263.254 15.003 L 253.167 15.006 253.167 15.919 L 253.167 16.833 253.792 16.833 L 254.417 16.833 254.432 17.571 C 254.445 18.155,254.384 18.325,254.141 18.388 C 253.933 18.443,253.833 18.622,253.833 18.944 C 253.833 19.239,253.707 19.499,253.500 19.628 C 253.292 19.758,253.167 20.017,253.167 20.315 C 253.167 20.654,253.069 20.820,252.833 20.882 C 252.555 20.954,252.500 21.109,252.500 21.818 C 252.500 22.570,252.460 22.667,252.149 22.667 C 251.914 22.667,251.828 22.745,251.889 22.903 C 251.939 23.034,251.797 23.338,251.573 23.579 C 251.306 23.867,251.167 24.214,251.167 24.592 C 251.167 24.977,251.089 25.167,250.931 25.167 C 250.801 25.167,250.657 25.260,250.610 25.375 C 250.564 25.490,250.520 25.381,250.513 25.133 C 250.506 24.886,250.378 24.615,250.228 24.531 C 250.079 24.448,249.939 24.200,249.916 23.981 C 249.852 23.348,249.845 23.333,249.605 23.333 C 249.467 23.333,249.334 23.069,249.269 22.667 C 249.200 22.235,249.075 22.000,248.915 22.000 C 248.743 22.000,248.667 21.823,248.667 21.423 C 248.667 21.016,248.568 20.792,248.333 20.667 C 248.125 20.555,248.000 20.318,248.000 20.034 C 248.000 19.761,247.867 19.497,247.667 19.372 C 247.454 19.239,247.333 18.983,247.333 18.665 C 247.333 18.278,247.259 18.167,247.000 18.167 C 246.730 18.167,246.667 18.056,246.667 17.583 C 246.667 17.243,246.580 16.988,246.458 16.971 C 246.344 16.954,246.775 16.898,247.417 16.846 L 248.583 16.750 248.635 16.216 C 248.755 14.975,248.855 15.000,243.823 15.000 L 239.325 15.000 239.155 15.449 M309.500 15.917 L 309.500 16.833 310.417 16.833 L 311.333 16.833 311.333 23.583 L 311.333 30.333 310.417 30.333 L 309.500 30.333 309.500 31.250 L 309.500 32.167 313.917 32.167 L 318.333 32.167 318.333 31.250 L 318.333 30.333 317.417 30.333 C 316.686 30.333,316.500 30.279,316.500 30.066 C 316.500 29.918,316.331 29.665,316.125 29.503 C 315.763 29.219,315.752 29.127,315.800 26.854 L 315.851 24.500 318.757 24.500 C 321.483 24.500,321.677 24.479,321.872 24.167 C 322.041 23.896,322.261 23.833,323.044 23.833 C 323.985 23.833,324.011 23.821,324.110 23.327 C 324.165 23.049,324.351 22.747,324.522 22.655 C 324.723 22.547,324.833 22.305,324.833 21.971 C 324.833 21.686,324.954 21.365,325.103 21.257 C 325.292 21.118,325.372 20.796,325.372 20.167 C 325.372 19.537,325.292 19.216,325.103 19.077 C 324.938 18.956,324.833 18.638,324.833 18.258 C 324.833 17.786,324.757 17.615,324.515 17.552 C 324.341 17.507,324.158 17.316,324.109 17.130 C 324.050 16.905,323.932 16.824,323.760 16.890 C 323.579 16.959,323.500 16.890,323.500 16.661 C 323.500 16.414,323.386 16.333,323.037 16.333 C 322.765 16.333,322.474 16.196,322.333 16.000 C 322.168 15.771,321.902 15.667,321.483 15.667 C 321.012 15.667,320.852 15.590,320.785 15.333 C 320.700 15.008,320.558 15.000,315.099 15.000 L 309.500 15.000 309.500 15.917 M324.833 15.913 L 324.833 16.833 325.573 16.833 C 325.981 16.833,326.361 16.910,326.418 17.003 C 326.476 17.096,326.574 17.141,326.637 17.102 C 326.699 17.063,326.750 19.875,326.750 23.349 C 326.750 29.255,326.731 29.667,326.458 29.667 C 326.278 29.667,326.167 29.794,326.167 30.000 C 326.167 30.278,326.056 30.333,325.500 30.333 L 324.833 30.333 324.833 31.253 L 324.833 32.173 328.292 32.128 L 331.750 32.083 331.800 31.208 L 331.851 30.333 330.945 30.333 C 330.179 30.333,330.025 30.282,329.952 30.000 C 329.904 29.817,329.745 29.667,329.599 29.667 C 329.364 29.667,329.333 29.252,329.333 26.099 C 329.333 22.613,329.341 22.533,329.667 22.618 C 329.916 22.684,330.000 22.846,330.000 23.260 C 330.000 23.636,330.114 23.894,330.354 24.063 C 330.622 24.250,330.682 24.415,330.602 24.736 C 330.525 25.041,330.590 25.256,330.831 25.497 C 331.021 25.688,331.167 26.054,331.167 26.344 C 331.167 26.986,331.459 27.551,331.737 27.445 C 331.882 27.389,331.924 27.488,331.872 27.762 C 331.762 28.337,331.966 29.000,332.253 29.000 C 332.423 29.000,332.500 29.178,332.500 29.572 C 332.500 29.993,332.586 30.171,332.825 30.247 C 333.082 30.329,333.160 30.530,333.200 31.217 L 333.250 32.083 334.417 32.083 L 335.583 32.083 335.634 31.210 C 335.672 30.547,335.762 30.294,336.009 30.162 C 336.214 30.052,336.333 29.813,336.333 29.512 C 336.333 29.250,336.438 28.995,336.567 28.946 C 336.695 28.897,336.852 28.551,336.915 28.178 C 336.978 27.805,337.086 27.500,337.155 27.500 C 337.328 27.500,337.667 26.721,337.667 26.320 C 337.667 26.138,337.779 25.946,337.917 25.894 C 338.100 25.823,338.167 25.535,338.167 24.816 C 338.167 23.944,338.204 23.833,338.500 23.833 C 338.768 23.833,338.833 23.722,338.833 23.269 C 338.833 22.846,338.916 22.684,339.167 22.618 C 339.493 22.533,339.500 22.613,339.500 26.432 L 339.500 30.333 338.583 30.333 L 337.667 30.333 337.667 31.250 L 337.667 32.167 342.072 32.167 L 346.478 32.167 346.547 31.708 L 346.617 31.250 346.642 31.708 L 346.667 32.167 354.250 32.167 C 361.351 32.167,361.835 32.148,361.859 31.875 C 361.873 31.715,361.902 31.396,361.924 31.167 C 361.945 30.938,361.971 30.619,361.981 30.458 C 361.992 30.298,362.113 30.167,362.250 30.167 C 362.442 30.167,362.500 29.954,362.500 29.250 C 362.500 28.552,362.559 28.333,362.747 28.333 C 363.302 28.333,363.305 26.627,362.750 26.525 C 362.567 26.491,362.357 26.359,362.283 26.231 C 361.971 25.690,360.668 26.303,360.664 26.994 C 360.661 27.480,360.506 27.743,360.208 27.767 C 359.588 27.816,359.500 27.852,359.500 28.054 C 359.500 28.176,359.323 28.441,359.108 28.644 C 358.852 28.884,358.740 29.143,358.787 29.387 C 358.853 29.732,358.807 29.756,358.195 29.698 C 357.688 29.650,357.450 29.717,357.183 29.984 C 356.869 30.298,356.640 30.333,354.917 30.333 L 353.000 30.333 353.000 27.430 L 353.000 24.526 354.243 24.472 C 355.396 24.421,355.498 24.444,355.656 24.792 C 355.750 24.998,355.902 25.167,355.995 25.167 C 356.282 25.167,356.833 25.726,356.833 26.018 C 356.833 26.170,356.983 26.334,357.167 26.382 C 357.422 26.448,357.500 26.609,357.500 27.068 C 357.500 27.499,357.573 27.667,357.760 27.667 C 357.903 27.667,357.973 27.592,357.917 27.500 C 357.860 27.408,357.893 27.333,357.990 27.333 C 358.087 27.333,358.167 27.408,358.167 27.500 C 358.167 27.592,358.429 27.667,358.750 27.667 L 359.333 27.667 359.333 23.482 C 359.333 19.735,359.361 19.308,359.597 19.399 C 359.742 19.454,359.892 19.500,359.930 19.500 C 359.969 19.500,360.000 19.612,360.000 19.750 C 360.000 19.889,360.148 20.000,360.333 20.000 C 360.556 20.000,360.667 20.111,360.667 20.333 C 360.667 20.626,360.778 20.667,361.583 20.667 L 362.500 20.667 362.500 19.750 C 362.500 19.046,362.442 18.833,362.250 18.833 C 362.098 18.833,362.000 18.678,362.000 18.437 C 362.000 17.687,361.791 17.000,361.563 17.000 C 361.413 17.000,361.333 16.802,361.333 16.428 C 361.333 16.113,361.260 15.662,361.170 15.426 L 361.007 14.996 353.880 15.040 L 346.753 15.083 346.646 15.583 L 346.539 16.083 346.520 15.538 L 346.500 14.993 343.042 15.038 L 339.583 15.083 339.533 15.691 C 339.497 16.117,339.389 16.323,339.172 16.380 C 338.931 16.443,338.875 16.589,338.917 17.043 C 338.959 17.494,338.911 17.620,338.704 17.604 C 338.527 17.590,338.386 17.793,338.285 18.208 C 338.200 18.561,338.032 18.833,337.900 18.833 C 337.726 18.833,337.667 19.084,337.667 19.814 C 337.667 20.654,337.619 20.807,337.333 20.882 C 337.092 20.945,337.000 21.109,337.000 21.479 C 337.000 21.818,336.888 22.048,336.667 22.167 C 336.424 22.297,336.333 22.516,336.333 22.973 C 336.333 23.615,336.102 24.000,335.717 24.000 C 335.597 24.000,335.500 23.896,335.500 23.768 C 335.500 23.640,335.387 23.492,335.250 23.440 C 335.112 23.387,335.000 23.191,335.000 23.005 C 335.000 22.819,334.850 22.517,334.667 22.333 C 334.483 22.150,334.333 21.779,334.333 21.508 C 334.333 21.238,334.224 20.955,334.090 20.881 C 333.948 20.801,333.815 20.402,333.770 19.921 C 333.725 19.438,333.585 19.019,333.430 18.906 C 333.285 18.800,333.167 18.553,333.167 18.357 C 333.167 18.160,333.017 17.850,332.833 17.667 C 332.648 17.481,332.500 17.111,332.500 16.833 C 332.500 16.450,332.425 16.333,332.177 16.333 C 331.923 16.333,331.842 16.198,331.802 15.708 L 331.750 15.083 328.292 15.038 L 324.833 14.993 324.833 15.913 M60.201 15.841 C 60.072 16.047,60.061 16.167,60.170 16.167 C 60.266 16.167,60.388 16.051,60.442 15.909 C 60.592 15.519,60.431 15.473,60.201 15.841 M18.882 16.000 C 18.834 16.183,18.691 16.333,18.564 16.333 C 18.437 16.333,18.333 16.411,18.333 16.506 C 18.333 16.623,18.441 16.621,18.667 16.500 C 18.850 16.402,19.000 16.218,19.000 16.091 C 19.000 15.965,19.094 15.823,19.208 15.777 C 19.365 15.714,19.361 15.690,19.193 15.680 C 19.070 15.673,18.930 15.817,18.882 16.000 M32.268 16.595 C 32.198 16.778,32.252 16.841,32.445 16.804 C 32.598 16.774,32.754 16.656,32.792 16.542 C 32.894 16.235,32.387 16.287,32.268 16.595 M45.910 16.511 C 45.733 16.797,45.891 16.825,46.240 16.570 C 46.511 16.372,46.519 16.333,46.292 16.333 C 46.142 16.333,45.970 16.413,45.910 16.511 M231.621 16.455 C 231.275 16.491,230.750 16.490,230.455 16.454 C 230.159 16.417,230.442 16.387,231.083 16.388 C 231.725 16.389,231.967 16.419,231.621 16.455 M267.375 16.455 C 266.985 16.490,266.348 16.490,265.958 16.455 C 265.569 16.420,265.887 16.392,266.667 16.392 C 267.446 16.392,267.765 16.420,267.375 16.455 M354.621 16.455 C 354.275 16.491,353.750 16.490,353.455 16.454 C 353.159 16.417,353.442 16.387,354.083 16.388 C 354.725 16.389,354.967 16.419,354.621 16.455 M347.244 16.833 C 347.654 16.833,347.817 16.918,347.882 17.167 C 347.942 17.397,348.109 17.500,348.421 17.500 C 348.788 17.500,348.838 17.544,348.683 17.730 C 348.547 17.894,348.495 19.629,348.504 23.765 C 348.517 29.471,348.511 29.572,348.175 29.696 C 347.987 29.766,347.833 29.938,347.833 30.078 C 347.833 30.259,347.663 30.333,347.250 30.333 C 346.901 30.333,346.661 30.417,346.654 30.542 C 346.643 30.708,346.624 30.708,346.556 30.542 C 346.504 30.411,346.136 30.333,345.569 30.333 L 344.667 30.333 344.667 23.583 L 344.667 16.833 345.583 16.833 C 346.199 16.833,346.504 16.765,346.513 16.625 C 346.524 16.458,346.543 16.458,346.610 16.625 C 346.657 16.740,346.942 16.833,347.244 16.833 M104.667 17.099 C 104.667 17.232,104.835 17.406,105.042 17.484 L 105.417 17.627 105.371 23.647 C 105.330 28.985,105.296 29.667,105.064 29.667 C 104.920 29.667,104.763 29.817,104.715 30.000 C 104.636 30.303,104.491 30.333,103.106 30.326 L 101.583 30.319 101.208 29.731 C 100.645 28.848,100.617 18.081,101.177 17.574 C 101.366 17.403,101.490 17.148,101.453 17.007 C 101.395 16.786,101.615 16.757,103.026 16.803 C 104.328 16.845,104.667 16.906,104.667 17.099 M302.333 17.110 C 302.333 17.250,302.483 17.404,302.667 17.452 C 302.850 17.500,303.000 17.662,303.000 17.813 C 303.000 17.963,303.150 18.180,303.333 18.295 C 303.517 18.409,303.667 18.659,303.667 18.850 C 303.667 19.058,303.801 19.233,304.000 19.285 C 304.270 19.356,304.333 19.512,304.333 20.104 C 304.333 20.630,304.427 20.917,304.667 21.122 C 304.973 21.384,305.000 21.614,305.000 23.954 C 305.000 26.389,304.985 26.500,304.667 26.500 C 304.391 26.500,304.333 26.611,304.333 27.147 C 304.333 27.654,304.261 27.813,304.000 27.882 C 303.801 27.934,303.667 28.109,303.667 28.316 C 303.667 28.507,303.517 28.758,303.333 28.872 C 303.150 28.987,303.000 29.212,303.000 29.373 C 303.000 29.535,302.893 29.667,302.761 29.667 C 302.630 29.667,302.475 29.817,302.417 30.000 C 302.326 30.285,302.156 30.336,301.239 30.352 C 299.072 30.389,299.167 30.405,299.167 30.000 C 299.167 29.778,299.056 29.667,298.833 29.667 C 298.611 29.667,298.500 29.556,298.500 29.333 C 298.500 29.148,298.389 29.000,298.250 29.000 C 298.112 29.000,298.000 28.902,298.000 28.781 C 298.000 28.661,297.858 28.410,297.684 28.223 C 297.510 28.037,297.340 27.741,297.307 27.567 C 297.274 27.393,297.097 27.229,296.915 27.202 C 296.411 27.130,296.495 20.837,297.007 20.288 C 297.186 20.095,297.333 19.729,297.333 19.474 C 297.333 19.177,297.457 18.946,297.680 18.826 C 297.878 18.720,297.987 18.540,297.935 18.404 C 297.875 18.248,297.957 18.167,298.172 18.167 C 298.389 18.167,298.500 18.054,298.500 17.833 C 298.500 17.611,298.611 17.500,298.833 17.500 C 299.068 17.500,299.167 17.389,299.166 17.125 C 299.166 16.759,299.203 16.751,300.750 16.803 C 302.035 16.846,302.333 16.904,302.333 17.110 M29.958 17.194 C 29.712 17.453,29.706 17.500,29.922 17.500 C 30.062 17.500,30.222 17.384,30.276 17.243 C 30.420 16.866,30.291 16.846,29.958 17.194 M44.875 17.005 C 44.669 17.088,44.500 17.233,44.500 17.328 C 44.500 17.568,44.767 17.542,45.033 17.277 C 45.156 17.154,45.367 17.010,45.503 16.957 C 45.719 16.872,45.719 16.859,45.500 16.857 C 45.362 16.856,45.081 16.922,44.875 17.005 M52.542 17.005 C 52.335 17.088,52.167 17.235,52.167 17.332 C 52.167 17.429,52.352 17.386,52.583 17.235 C 52.813 17.085,53.000 16.933,53.000 16.897 C 53.000 16.820,53.007 16.818,52.542 17.005 M111.750 17.167 C 111.829 17.415,112.002 17.500,112.428 17.500 C 112.889 17.500,113.000 17.565,113.000 17.833 C 113.000 18.056,113.111 18.167,113.333 18.167 C 113.556 18.167,113.667 18.278,113.667 18.500 C 113.667 18.722,113.778 18.833,114.000 18.833 C 114.296 18.833,114.333 18.944,114.333 19.828 C 114.333 20.641,114.288 20.805,114.085 20.727 C 113.935 20.670,113.791 20.755,113.722 20.941 C 113.568 21.358,112.873 22.000,112.575 22.000 C 112.442 22.000,112.333 22.150,112.333 22.333 C 112.333 22.547,112.222 22.667,112.024 22.667 C 111.855 22.667,111.255 22.715,110.691 22.774 L 109.667 22.881 109.632 20.482 L 109.598 18.083 109.500 20.417 L 109.402 22.750 109.368 20.561 C 109.341 18.890,109.392 18.258,109.582 17.894 C 109.719 17.631,109.832 17.285,109.832 17.125 C 109.834 16.662,111.602 16.700,111.750 17.167 M164.167 17.167 C 164.167 17.391,164.278 17.500,164.505 17.500 C 164.691 17.500,164.887 17.612,164.940 17.750 C 164.992 17.887,165.140 18.000,165.268 18.000 C 165.396 18.000,165.500 18.157,165.500 18.349 C 165.500 18.545,165.632 18.732,165.800 18.776 C 165.965 18.819,166.195 19.008,166.312 19.195 C 166.429 19.382,166.444 19.485,166.346 19.424 C 166.230 19.353,166.167 19.547,166.167 19.979 C 166.167 20.498,166.093 20.667,165.833 20.750 C 165.650 20.808,165.500 20.963,165.500 21.095 C 165.500 21.483,164.922 21.946,164.290 22.065 C 163.833 22.151,163.675 22.276,163.589 22.621 C 163.512 22.928,163.436 23.000,163.346 22.854 C 163.274 22.737,163.110 22.656,162.982 22.674 C 162.855 22.692,162.506 22.697,162.208 22.686 L 161.667 22.667 161.667 19.750 L 161.667 16.833 162.917 16.833 C 164.056 16.833,164.167 16.863,164.167 17.167 M269.215 17.167 C 269.279 17.412,269.442 17.500,269.833 17.500 C 270.224 17.500,270.388 17.588,270.452 17.833 C 270.500 18.017,270.643 18.167,270.769 18.167 C 270.896 18.167,271.000 18.198,271.000 18.236 C 271.000 18.275,271.046 18.425,271.101 18.570 C 271.174 18.760,271.102 18.833,270.840 18.833 C 270.106 18.833,269.833 19.129,269.833 19.923 C 269.833 20.492,269.771 20.667,269.568 20.667 C 269.422 20.667,269.265 20.810,269.219 20.985 C 269.173 21.159,268.993 21.340,268.818 21.386 C 268.643 21.431,268.500 21.588,268.500 21.734 C 268.500 21.945,268.311 22.000,267.583 22.000 C 266.916 22.000,266.667 22.062,266.667 22.230 C 266.667 22.599,266.286 22.811,265.792 22.716 L 265.333 22.628 265.333 19.731 L 265.333 16.833 267.231 16.833 C 268.988 16.833,269.134 16.858,269.215 17.167 M318.295 17.167 C 318.409 17.350,318.640 17.500,318.807 17.500 C 319.587 17.500,320.333 18.771,320.333 20.097 C 320.333 21.222,320.303 21.333,320.000 21.333 C 319.778 21.333,319.667 21.444,319.667 21.667 C 319.667 21.935,319.556 22.000,319.095 22.000 C 318.645 22.000,318.512 22.073,318.470 22.346 C 318.423 22.653,318.274 22.700,317.125 22.769 L 315.833 22.847 315.833 20.193 C 315.833 17.679,315.851 17.534,316.167 17.452 C 316.350 17.404,316.500 17.245,316.500 17.099 C 316.500 16.671,318.021 16.729,318.295 17.167 M356.882 17.167 C 356.948 17.422,357.109 17.500,357.568 17.500 C 358.056 17.500,358.167 17.562,358.167 17.833 C 358.167 18.019,358.278 18.167,358.417 18.167 C 358.554 18.167,358.667 18.198,358.667 18.236 C 358.667 18.275,358.712 18.425,358.768 18.570 C 358.846 18.774,358.757 18.833,358.372 18.833 C 357.726 18.833,357.447 19.188,357.530 19.903 C 357.567 20.218,357.556 20.470,357.507 20.462 C 357.232 20.417,356.833 20.745,356.833 21.018 C 356.833 21.208,356.717 21.333,356.540 21.333 C 356.379 21.333,356.153 21.483,356.039 21.667 C 355.881 21.920,355.650 22.000,355.082 22.000 C 354.556 22.000,354.234 22.099,354.000 22.333 C 353.112 23.222,353.000 22.933,353.000 19.750 L 353.000 16.833 354.897 16.833 C 356.654 16.833,356.801 16.858,356.882 17.167 M17.778 17.111 C 17.535 17.354,17.677 17.633,18.000 17.548 C 18.183 17.500,18.333 17.357,18.333 17.231 C 18.333 16.992,17.974 16.915,17.778 17.111 M28.333 17.736 C 28.333 17.866,28.240 18.010,28.125 18.056 C 28.005 18.105,27.994 18.146,28.099 18.154 C 28.200 18.161,28.417 18.017,28.583 17.833 C 28.855 17.534,28.857 17.500,28.609 17.500 C 28.457 17.500,28.333 17.606,28.333 17.736 M51.431 17.774 C 51.276 18.178,51.396 18.201,51.716 17.828 C 51.934 17.573,51.945 17.500,51.766 17.500 C 51.639 17.500,51.488 17.623,51.431 17.774 M26.500 18.417 C 26.500 18.554,26.412 18.667,26.306 18.667 C 26.199 18.667,26.146 18.701,26.188 18.743 C 26.331 18.887,26.977 18.635,27.067 18.400 C 27.125 18.249,27.041 18.167,26.828 18.167 C 26.648 18.167,26.500 18.279,26.500 18.417 M42.724 18.424 C 42.580 18.801,42.709 18.820,43.042 18.472 C 43.288 18.214,43.294 18.167,43.078 18.167 C 42.938 18.167,42.778 18.282,42.724 18.424 M109.167 20.417 C 109.167 21.806,109.103 22.667,109.000 22.667 C 108.897 22.667,108.833 21.806,108.833 20.417 C 108.833 19.028,108.897 18.167,109.000 18.167 C 109.103 18.167,109.167 19.028,109.167 20.417 M16.497 19.087 C 16.381 19.227,16.332 19.388,16.389 19.444 C 16.510 19.565,17.000 19.193,17.000 18.980 C 17.000 18.750,16.728 18.808,16.497 19.087 M57.167 19.043 C 57.167 19.189,57.035 19.343,56.875 19.385 C 56.602 19.457,56.602 19.463,56.880 19.481 C 57.182 19.500,57.461 19.072,57.271 18.882 C 57.213 18.825,57.167 18.897,57.167 19.043 M40.058 19.757 C 39.913 20.134,40.043 20.154,40.375 19.806 C 40.622 19.547,40.627 19.500,40.411 19.500 C 40.271 19.500,40.112 19.616,40.058 19.757 M55.514 20.298 C 55.384 20.455,55.127 20.752,54.943 20.958 C 54.637 21.302,54.633 21.333,54.903 21.333 C 55.065 21.333,55.237 21.183,55.285 21.000 C 55.333 20.817,55.476 20.667,55.603 20.667 C 55.730 20.667,55.833 20.635,55.833 20.597 C 55.833 20.559,55.879 20.409,55.934 20.264 C 56.068 19.916,55.812 19.937,55.514 20.298 M13.944 20.278 C 13.733 20.489,13.835 20.667,14.167 20.667 C 14.352 20.667,14.500 20.556,14.500 20.417 C 14.500 20.163,14.147 20.075,13.944 20.278 M37.576 20.844 C 37.400 21.130,37.558 21.158,37.907 20.903 C 38.177 20.705,38.186 20.667,37.958 20.667 C 37.809 20.667,37.637 20.747,37.576 20.844 M11.315 21.708 C 11.119 22.081,11.120 22.082,11.476 21.766 C 11.873 21.413,11.909 21.333,11.673 21.333 C 11.584 21.333,11.423 21.502,11.315 21.708 M35.942 21.639 C 35.713 21.892,35.707 21.944,35.909 21.944 C 36.042 21.944,36.117 21.888,36.075 21.820 C 36.033 21.751,36.205 21.620,36.457 21.527 C 36.840 21.388,36.858 21.357,36.567 21.346 C 36.375 21.339,36.094 21.471,35.942 21.639 M181.500 22.231 C 181.500 22.988,181.552 23.141,181.833 23.215 C 182.079 23.279,182.167 23.442,182.167 23.833 C 182.167 24.229,182.254 24.387,182.508 24.454 C 183.498 24.713,182.740 25.084,181.123 25.131 L 179.500 25.179 179.500 24.525 C 179.500 24.012,179.572 23.854,179.833 23.785 C 180.068 23.724,180.167 23.558,180.167 23.222 C 180.167 22.927,180.293 22.668,180.500 22.539 C 180.713 22.406,180.833 22.150,180.833 21.832 C 180.833 21.444,180.908 21.333,181.167 21.333 C 181.459 21.333,181.500 21.444,181.500 22.231 M20.417 22.167 C 20.163 22.447,20.156 22.500,20.371 22.500 C 20.512 22.500,20.667 22.350,20.715 22.167 C 20.763 21.983,20.783 21.833,20.760 21.833 C 20.737 21.833,20.583 21.983,20.417 22.167 M10.058 22.257 C 9.913 22.634,10.043 22.654,10.375 22.306 C 10.622 22.047,10.627 22.000,10.411 22.000 C 10.271 22.000,10.112 22.116,10.058 22.257 M52.833 22.255 C 52.833 22.396,52.708 22.559,52.554 22.617 C 52.224 22.744,51.606 23.333,51.803 23.333 C 52.001 23.333,53.333 22.286,53.333 22.131 C 53.333 22.059,53.221 22.000,53.083 22.000 C 52.946 22.000,52.833 22.115,52.833 22.255 M9.125 22.847 C 8.776 23.050,8.741 23.333,9.064 23.333 C 9.191 23.333,9.334 23.183,9.382 23.000 C 9.430 22.817,9.457 22.669,9.443 22.672 C 9.428 22.675,9.285 22.753,9.125 22.847 M15.733 25.417 C 15.734 26.792,15.759 27.332,15.791 26.617 C 15.822 25.903,15.822 24.778,15.790 24.117 C 15.759 23.457,15.733 24.042,15.733 25.417 M7.125 23.681 C 6.846 23.986,6.848 24.000,7.167 24.000 C 7.350 24.000,7.500 23.894,7.500 23.764 C 7.500 23.634,7.594 23.490,7.708 23.444 C 7.847 23.388,7.834 23.360,7.667 23.360 C 7.529 23.361,7.285 23.505,7.125 23.681 M14.272 23.587 C 14.192 23.794,14.235 23.809,14.504 23.665 C 14.890 23.458,14.927 23.333,14.601 23.333 C 14.473 23.333,14.325 23.448,14.272 23.587 M29.894 23.583 C 29.841 23.721,29.674 23.839,29.524 23.846 C 29.369 23.854,29.336 23.895,29.447 23.940 C 29.638 24.018,30.667 23.573,30.667 23.412 C 30.667 23.210,29.978 23.362,29.894 23.583 M27.542 24.110 C 27.215 24.242,27.298 24.500,27.667 24.500 C 27.850 24.500,28.000 24.430,28.000 24.346 C 28.000 24.261,28.131 24.157,28.292 24.115 C 28.480 24.066,28.436 24.036,28.167 24.032 C 27.938 24.029,27.656 24.064,27.542 24.110 M5.125 24.626 C 4.965 24.662,4.833 24.792,4.833 24.915 C 4.833 25.038,4.740 25.177,4.625 25.223 C 4.510 25.269,4.492 25.310,4.583 25.315 C 4.770 25.323,5.584 24.685,5.482 24.610 C 5.446 24.583,5.285 24.591,5.125 24.626 M109.164 26.458 C 109.163 27.535,109.089 28.529,109.000 28.667 C 108.891 28.835,108.838 28.196,108.836 26.708 C 108.834 25.346,108.897 24.500,109.000 24.500 C 109.102 24.500,109.166 25.262,109.164 26.458 M109.457 27.618 C 109.425 28.241,109.398 27.775,109.398 26.583 C 109.398 25.392,109.424 24.882,109.457 25.451 C 109.489 26.021,109.489 26.996,109.457 27.618 M47.762 25.487 C 47.443 25.839,47.563 25.947,47.979 25.683 C 48.104 25.604,48.177 25.449,48.141 25.340 C 48.098 25.211,47.964 25.264,47.762 25.487 M2.500 26.167 C 2.317 26.350,2.054 26.500,1.917 26.500 C 1.778 26.500,1.667 26.648,1.667 26.833 L 1.667 27.167 2.000 26.833 C 2.183 26.650,2.443 26.500,2.577 26.500 C 2.712 26.500,2.902 26.350,3.000 26.167 C 3.121 25.941,3.123 25.833,3.006 25.833 C 2.911 25.833,2.683 25.983,2.500 26.167 M8.202 26.090 C 8.025 26.290,8.029 26.333,8.226 26.333 C 8.357 26.333,8.508 26.221,8.560 26.083 C 8.682 25.767,8.483 25.771,8.202 26.090 M337.014 26.851 C 336.867 27.218,336.854 27.222,336.844 26.903 C 336.838 26.712,336.883 26.506,336.944 26.444 C 337.144 26.245,337.177 26.443,337.014 26.851 M6.831 26.838 C 6.427 27.145,6.426 27.151,6.794 27.057 C 7.002 27.003,7.216 26.889,7.269 26.802 C 7.453 26.506,7.245 26.523,6.831 26.838 M0.391 27.424 C 0.236 27.828,0.417 27.867,0.749 27.501 C 1.025 27.196,1.027 27.167,0.771 27.167 C 0.616 27.167,0.445 27.282,0.391 27.424 M5.667 27.417 C 5.497 27.621,5.508 27.667,5.730 27.667 C 5.878 27.667,6.000 27.554,6.000 27.417 C 6.000 27.279,5.972 27.167,5.937 27.167 C 5.902 27.167,5.781 27.279,5.667 27.417 M4.458 28.028 C 4.236 28.260,4.222 28.333,4.399 28.333 C 4.527 28.333,4.678 28.210,4.736 28.059 C 4.882 27.679,4.800 27.670,4.458 28.028 M43.119 27.997 C 43.046 28.278,43.080 28.302,43.350 28.158 C 43.719 27.960,43.770 27.667,43.436 27.667 C 43.309 27.667,43.167 27.815,43.119 27.997 M15.745 28.498 C 15.798 28.817,15.952 29.190,16.087 29.325 C 16.435 29.673,16.393 29.339,15.991 28.571 L 15.649 27.917 15.745 28.498 M41.286 28.664 C 41.212 28.945,41.247 28.969,41.516 28.825 C 41.885 28.627,41.937 28.333,41.603 28.333 C 41.476 28.333,41.333 28.482,41.286 28.664 M1.601 29.264 C 1.447 29.666,1.473 29.693,1.833 29.500 C 2.017 29.402,2.167 29.249,2.167 29.161 C 2.167 28.896,1.710 28.979,1.601 29.264 M35.667 31.167 C 35.534 31.248,35.482 31.371,35.549 31.438 C 35.617 31.506,35.760 31.474,35.867 31.367 C 36.118 31.115,35.978 30.974,35.667 31.167 M13.833 35.302 C 13.833 38.228,13.878 38.995,14.042 38.902 C 14.208 38.808,14.208 38.829,14.042 39.009 C 13.234 39.879,12.219 39.833,32.333 39.833 L 50.833 39.833 50.833 35.750 C 50.833 32.597,50.786 31.666,50.625 31.662 C 44.221 31.523,33.973 31.705,33.247 31.971 C 32.787 32.139,32.316 32.244,32.200 32.206 C 32.084 32.167,31.690 32.255,31.324 32.401 C 30.341 32.794,18.924 32.801,18.490 32.408 C 18.333 32.265,18.054 32.137,17.870 32.124 C 17.671 32.109,17.570 32.011,17.619 31.883 C 17.665 31.764,17.638 31.665,17.559 31.662 C 17.481 31.660,16.610 31.641,15.625 31.621 L 13.833 31.583 13.833 35.302 M16.542 31.954 C 16.244 31.991,15.756 31.991,15.458 31.954 C 15.160 31.917,15.404 31.887,16.000 31.887 C 16.596 31.887,16.840 31.917,16.542 31.954 M45.553 31.958 C 43.611 31.985,40.386 31.985,38.386 31.958 C 36.386 31.932,37.975 31.910,41.917 31.910 C 45.858 31.910,47.495 31.931,45.553 31.958 M40.542 39.292 C 35.844 39.316,28.156 39.316,23.458 39.292 C 18.760 39.267,22.604 39.247,32.000 39.247 C 41.396 39.247,45.240 39.267,40.542 39.292 " stroke="none" fill="#04244c" fill-rule="evenodd"></path><path id="path1" d="M47.972 0.154 C 47.942 0.239,47.429 0.327,46.833 0.349 C 46.043 0.379,45.679 0.470,45.489 0.685 C 45.314 0.883,44.944 0.994,44.366 1.020 C 43.699 1.050,43.482 1.128,43.407 1.363 C 43.323 1.629,42.522 1.792,41.802 1.690 C 41.739 1.681,41.638 1.829,41.577 2.020 C 41.494 2.283,41.366 2.347,41.048 2.286 C 40.774 2.233,40.517 2.316,40.309 2.524 C 40.134 2.699,39.712 2.872,39.370 2.907 C 39.029 2.943,38.712 2.987,38.667 3.006 C 38.621 3.024,38.525 3.030,38.454 3.018 C 38.382 3.006,38.281 3.108,38.229 3.244 C 38.177 3.380,37.879 3.539,37.567 3.597 C 37.245 3.658,37.000 3.804,37.000 3.935 C 37.000 4.081,36.816 4.167,36.506 4.167 C 36.230 4.167,35.878 4.311,35.706 4.496 C 35.446 4.775,35.057 4.928,34.458 4.988 C 34.390 4.994,34.333 5.112,34.333 5.250 C 34.333 5.416,34.168 5.500,33.843 5.500 C 33.562 5.500,33.259 5.628,33.134 5.800 C 33.015 5.965,32.748 6.107,32.542 6.115 C 31.883 6.141,31.833 6.162,31.833 6.417 C 31.833 6.554,31.688 6.667,31.511 6.667 C 31.334 6.667,31.142 6.817,31.083 7.000 C 31.009 7.234,30.831 7.333,30.489 7.333 C 30.217 7.333,29.847 7.486,29.655 7.678 C 29.466 7.867,29.155 8.034,28.963 8.049 C 28.772 8.063,28.583 8.201,28.543 8.355 C 28.500 8.517,28.230 8.680,27.901 8.742 C 27.589 8.800,27.333 8.949,27.333 9.073 C 27.333 9.196,27.143 9.345,26.910 9.403 C 26.677 9.462,26.531 9.583,26.586 9.672 C 26.641 9.761,26.569 9.843,26.427 9.854 C 25.963 9.891,25.922 9.912,25.542 10.292 C 25.335 10.498,25.092 10.667,25.001 10.667 C 24.743 10.667,24.000 11.369,24.000 11.613 C 24.000 11.734,23.944 11.821,23.875 11.806 C 23.661 11.759,22.813 12.036,22.901 12.124 C 23.014 12.236,22.073 13.167,21.846 13.167 C 21.747 13.167,21.667 13.286,21.667 13.432 C 21.667 13.578,21.524 13.735,21.349 13.781 C 21.174 13.827,20.993 14.007,20.948 14.182 C 20.899 14.367,20.719 14.500,20.516 14.500 C 20.318 14.500,20.167 14.607,20.167 14.748 C 20.167 15.003,20.029 15.188,18.958 16.377 C 18.615 16.758,18.333 17.204,18.333 17.368 C 18.333 17.532,18.277 17.658,18.208 17.647 C 17.840 17.589,17.667 17.702,17.667 18.000 C 17.667 18.183,17.597 18.333,17.511 18.333 C 17.425 18.333,17.260 18.596,17.144 18.917 C 16.995 19.329,16.831 19.500,16.587 19.500 C 16.396 19.500,16.132 19.650,16.000 19.833 C 15.850 20.041,15.569 20.167,15.253 20.167 C 14.919 20.167,14.672 20.286,14.528 20.517 C 14.361 20.784,14.187 20.850,13.799 20.793 C 13.405 20.735,13.270 20.788,13.208 21.026 C 13.164 21.195,12.987 21.343,12.814 21.354 C 12.641 21.366,12.356 21.384,12.181 21.396 C 12.005 21.407,11.799 21.485,11.722 21.568 C 11.639 21.659,11.684 21.663,11.833 21.578 C 12.037 21.463,12.046 21.482,11.885 21.681 C 11.777 21.815,11.484 21.942,11.234 21.963 C 10.985 21.984,10.683 22.141,10.563 22.312 C 10.443 22.483,10.118 22.668,9.839 22.724 C 9.541 22.783,9.333 22.929,9.333 23.079 C 9.333 23.267,9.148 23.334,8.625 23.336 C 7.900 23.338,7.460 23.506,7.487 23.769 C 7.495 23.850,7.266 23.978,6.978 24.052 C 6.690 24.127,6.343 24.300,6.206 24.437 C 6.069 24.574,5.854 24.646,5.729 24.598 C 5.583 24.542,5.500 24.629,5.500 24.839 C 5.500 25.146,5.265 25.238,4.543 25.212 C 4.430 25.208,4.378 25.271,4.428 25.352 C 4.479 25.433,4.436 25.500,4.333 25.500 C 4.231 25.500,4.193 25.575,4.250 25.667 C 4.308 25.761,4.171 25.833,3.933 25.833 C 3.702 25.833,3.379 25.977,3.215 26.153 C 3.051 26.329,2.704 26.526,2.445 26.591 C 2.185 26.656,1.934 26.812,1.885 26.938 C 1.837 27.064,1.658 27.167,1.488 27.167 C 1.318 27.167,1.095 27.323,0.992 27.515 C 0.853 27.775,0.705 27.837,0.403 27.761 C 0.010 27.663,-0.000 27.685,-0.000 28.670 L -0.000 29.680 0.750 29.632 C 1.334 29.594,1.500 29.519,1.500 29.292 C 1.500 29.077,1.636 29.000,2.016 29.000 C 2.380 29.000,2.555 28.908,2.613 28.686 C 2.674 28.453,2.908 28.344,3.520 28.263 C 3.974 28.203,4.305 28.089,4.257 28.011 C 4.156 27.847,4.548 27.667,5.004 27.667 C 5.174 27.667,5.367 27.580,5.433 27.474 C 5.511 27.348,5.471 27.323,5.317 27.403 C 5.189 27.470,5.215 27.417,5.375 27.285 C 5.536 27.154,5.863 27.067,6.103 27.094 C 6.416 27.128,6.561 27.052,6.622 26.821 C 6.668 26.644,6.847 26.491,7.019 26.479 C 7.192 26.468,7.465 26.451,7.625 26.442 C 7.785 26.433,8.007 26.303,8.118 26.153 C 8.229 26.002,8.594 25.835,8.928 25.780 C 9.262 25.726,9.621 25.568,9.726 25.428 C 9.831 25.288,10.155 25.157,10.447 25.136 C 10.738 25.115,10.973 25.057,10.969 25.007 C 10.935 24.638,11.055 24.500,11.407 24.500 C 11.631 24.500,11.861 24.424,11.918 24.331 C 11.976 24.237,12.093 24.204,12.178 24.257 C 12.264 24.310,12.333 24.246,12.333 24.114 C 12.333 23.949,12.595 23.851,13.184 23.794 C 13.653 23.749,14.091 23.623,14.158 23.514 C 14.225 23.406,14.442 23.304,14.640 23.290 C 14.838 23.275,15.000 23.210,15.000 23.147 C 15.000 23.083,15.162 23.073,15.359 23.125 C 15.594 23.187,15.680 23.156,15.607 23.038 C 15.545 22.938,15.565 22.813,15.652 22.759 C 15.739 22.706,15.858 22.814,15.917 23.000 C 15.982 23.204,16.102 23.290,16.220 23.217 C 16.329 23.150,16.302 23.280,16.161 23.506 C 15.966 23.818,15.906 24.402,15.911 25.942 C 15.915 27.247,15.857 27.934,15.750 27.872 C 15.658 27.819,15.722 27.934,15.891 28.128 C 16.061 28.321,16.150 28.559,16.090 28.656 C 16.030 28.754,16.050 28.833,16.135 28.833 C 16.263 28.833,16.422 29.545,16.534 30.625 C 16.546 30.740,16.647 30.833,16.758 30.833 C 16.870 30.833,16.996 30.968,17.039 31.133 C 17.297 32.117,34.672 32.164,35.466 31.183 C 35.584 31.037,35.715 30.935,35.757 30.958 C 35.799 30.981,35.871 30.991,35.917 30.979 C 35.996 30.959,36.429 30.902,36.875 30.852 C 37.020 30.835,37.007 30.779,36.833 30.667 C 36.659 30.554,36.647 30.498,36.792 30.482 C 37.037 30.454,37.300 30.392,37.417 30.333 C 37.584 30.249,37.844 30.208,38.328 30.188 C 38.695 30.172,38.798 30.102,38.727 29.917 C 38.657 29.733,38.758 29.660,39.107 29.641 C 39.901 29.599,39.936 29.588,40.235 29.289 C 40.393 29.130,40.705 28.955,40.927 28.899 C 41.149 28.843,41.293 28.736,41.246 28.660 C 41.117 28.452,41.368 28.355,42.157 28.308 C 42.632 28.280,42.936 28.165,43.060 27.966 C 43.163 27.801,43.379 27.667,43.540 27.667 C 43.701 27.667,43.833 27.604,43.833 27.527 C 43.833 27.346,44.592 27.000,44.987 27.000 C 45.155 27.000,45.386 26.887,45.500 26.750 C 45.614 26.612,45.830 26.500,45.980 26.500 C 46.131 26.500,46.443 26.331,46.675 26.125 C 46.906 25.919,47.200 25.727,47.329 25.698 C 47.457 25.670,47.646 25.531,47.748 25.391 C 47.851 25.250,48.131 25.124,48.370 25.109 C 48.610 25.095,48.793 25.011,48.778 24.923 C 48.762 24.834,48.919 24.685,49.127 24.591 C 49.334 24.497,49.540 24.304,49.585 24.162 C 49.632 24.013,49.893 23.887,50.202 23.863 C 50.496 23.841,50.790 23.737,50.854 23.633 C 50.919 23.528,51.222 23.358,51.528 23.255 C 51.833 23.152,52.065 22.977,52.042 22.867 C 52.019 22.757,52.108 22.667,52.241 22.667 C 52.373 22.667,52.579 22.534,52.699 22.372 C 52.819 22.211,53.123 21.987,53.375 21.876 C 53.627 21.765,53.833 21.597,53.833 21.504 C 53.833 21.410,53.965 21.331,54.125 21.328 C 54.498 21.321,55.351 20.577,55.294 20.308 C 55.270 20.195,55.400 20.077,55.583 20.045 C 56.462 19.892,56.673 19.811,56.581 19.662 C 56.470 19.484,57.304 18.680,57.607 18.672 C 57.712 18.669,57.841 18.554,57.894 18.417 C 57.946 18.279,58.109 18.167,58.255 18.167 C 58.400 18.167,58.481 18.103,58.433 18.026 C 58.295 17.803,59.460 16.622,59.682 16.759 C 59.804 16.835,59.846 16.793,59.795 16.648 C 59.751 16.521,59.844 16.229,60.003 16.000 C 61.414 13.962,61.608 10.313,60.318 10.055 C 59.990 9.990,59.833 9.858,59.833 9.646 C 59.833 9.439,59.707 9.327,59.458 9.314 C 58.803 9.281,58.734 9.256,58.430 8.953 C 57.899 8.423,49.612 8.563,49.648 9.102 C 49.654 9.183,49.379 9.255,49.037 9.261 C 46.925 9.299,46.689 9.334,46.596 9.625 C 46.517 9.875,46.284 9.917,44.960 9.917 C 43.595 9.917,43.393 9.955,43.214 10.250 C 43.068 10.490,43.009 10.514,43.003 10.333 C 42.997 10.149,42.961 10.137,42.865 10.288 C 42.793 10.401,42.288 10.535,41.742 10.586 C 41.197 10.637,40.656 10.688,40.542 10.700 C 40.427 10.712,40.333 10.822,40.333 10.944 C 40.333 11.138,39.617 11.274,39.102 11.179 C 39.021 11.164,38.796 11.295,38.602 11.471 C 38.403 11.651,37.888 11.832,37.417 11.886 C 36.958 11.939,36.286 12.137,35.923 12.325 C 35.560 12.513,35.158 12.667,35.030 12.667 C 34.902 12.667,34.835 12.764,34.881 12.883 C 34.940 13.037,34.767 13.102,34.273 13.110 C 33.354 13.126,32.484 13.339,32.596 13.520 C 32.646 13.601,32.663 13.669,32.635 13.673 C 31.614 13.798,31.219 13.900,31.082 14.074 C 30.943 14.250,29.745 14.479,28.875 14.496 C 28.760 14.498,28.667 14.598,28.667 14.718 C 28.667 14.839,28.351 15.006,27.958 15.093 C 27.541 15.186,27.267 15.336,27.292 15.458 C 27.317 15.586,27.157 15.663,26.875 15.656 C 26.434 15.646,26.431 15.640,26.792 15.495 C 26.998 15.412,27.167 15.267,27.167 15.172 C 27.167 15.077,27.282 15.000,27.422 15.000 C 27.562 15.000,27.719 14.890,27.771 14.756 C 27.864 14.514,28.457 14.233,28.723 14.305 C 28.799 14.326,28.902 14.191,28.950 14.005 C 28.999 13.819,29.176 13.667,29.343 13.667 C 29.510 13.667,29.694 13.590,29.752 13.497 C 29.809 13.404,29.938 13.378,30.037 13.440 C 30.146 13.507,30.170 13.474,30.098 13.357 C 30.020 13.231,30.158 13.127,30.491 13.060 C 30.831 12.992,30.990 12.870,30.961 12.699 C 30.931 12.522,31.062 12.432,31.379 12.412 C 31.633 12.397,32.013 12.223,32.223 12.026 C 32.433 11.828,32.690 11.667,32.794 11.667 C 32.898 11.667,33.060 11.535,33.153 11.375 C 33.247 11.215,33.325 11.149,33.328 11.229 C 33.331 11.309,33.443 11.284,33.576 11.173 C 33.710 11.062,33.897 11.020,33.993 11.079 C 34.092 11.140,34.167 11.039,34.167 10.843 C 34.167 10.611,34.275 10.500,34.500 10.500 C 34.683 10.500,34.983 10.350,35.167 10.167 C 35.376 9.957,35.722 9.833,36.099 9.833 C 36.558 9.833,36.718 9.755,36.785 9.500 C 36.848 9.261,37.012 9.167,37.368 9.167 C 37.732 9.167,37.889 9.073,37.956 8.818 C 38.028 8.541,38.147 8.484,38.533 8.540 C 38.865 8.589,39.084 8.520,39.222 8.323 C 39.352 8.137,39.726 8.006,40.278 7.955 C 41.216 7.867,41.556 7.726,41.410 7.488 C 41.328 7.357,42.110 7.241,42.554 7.318 C 42.630 7.331,42.644 7.265,42.586 7.171 C 42.528 7.077,42.602 7.000,42.750 7.000 C 42.898 7.000,42.973 6.925,42.917 6.833 C 42.857 6.736,43.044 6.659,43.365 6.647 C 43.905 6.629,44.123 6.598,44.375 6.505 C 44.444 6.479,44.594 6.446,44.708 6.430 C 44.823 6.414,44.898 6.311,44.875 6.201 C 44.840 6.031,45.406 5.906,45.875 5.980 C 45.944 5.991,46.000 5.887,46.000 5.750 C 46.000 5.576,46.190 5.493,46.625 5.479 C 46.969 5.467,47.475 5.429,47.750 5.394 C 48.025 5.360,48.456 5.313,48.708 5.291 C 48.960 5.269,49.167 5.157,49.167 5.042 C 49.167 4.927,49.223 4.828,49.292 4.821 C 49.429 4.807,49.784 4.734,50.161 4.643 C 50.678 4.517,50.846 3.815,50.822 1.886 L 50.797 -0.000 49.413 -0.000 C 48.651 -0.000,48.003 0.069,47.972 0.154 M56.167 11.510 C 56.167 11.699,56.238 11.809,56.326 11.755 C 56.782 11.473,57.280 11.858,57.305 12.511 C 57.322 12.942,57.259 13.167,57.120 13.167 C 57.004 13.167,56.768 13.429,56.595 13.750 C 56.309 14.280,56.143 14.407,55.798 14.355 C 55.732 14.345,55.723 14.454,55.778 14.596 C 55.838 14.753,55.736 14.953,55.519 15.105 C 55.322 15.243,55.205 15.428,55.260 15.516 C 55.314 15.603,55.296 15.660,55.221 15.642 C 55.012 15.591,54.167 16.034,54.167 16.193 C 54.167 16.270,54.047 16.333,53.901 16.333 C 53.755 16.333,53.596 16.483,53.548 16.667 C 53.500 16.851,53.321 17.000,53.147 17.000 C 52.975 17.000,52.833 17.069,52.833 17.154 C 52.833 17.238,52.571 17.394,52.250 17.500 C 51.929 17.606,51.667 17.799,51.667 17.930 C 51.667 18.060,51.598 18.167,51.514 18.167 C 51.429 18.167,51.242 18.212,51.097 18.268 C 50.867 18.356,50.833 18.152,50.833 16.684 C 50.833 15.314,50.788 15.000,50.589 15.000 C 50.449 15.000,50.382 14.901,50.432 14.770 C 50.499 14.595,50.352 14.545,49.818 14.562 C 49.302 14.578,49.089 14.663,49.010 14.887 C 48.952 15.055,48.850 15.186,48.785 15.179 C 48.433 15.142,48.337 15.186,48.375 15.365 C 48.398 15.474,48.274 15.594,48.100 15.632 C 47.925 15.670,47.630 15.843,47.443 16.017 C 47.257 16.191,46.995 16.333,46.862 16.333 C 46.729 16.333,46.535 16.450,46.430 16.593 C 46.258 16.829,45.927 16.953,45.380 16.987 C 45.269 16.994,45.217 17.103,45.265 17.230 C 45.326 17.389,45.164 17.495,44.735 17.575 C 44.395 17.639,43.981 17.854,43.814 18.054 C 43.647 18.253,43.509 18.351,43.506 18.271 C 43.502 18.191,43.388 18.219,43.252 18.332 C 43.115 18.445,43.045 18.604,43.095 18.686 C 43.145 18.767,42.883 18.833,42.511 18.833 C 42.017 18.833,41.780 18.922,41.628 19.167 C 41.513 19.350,41.250 19.500,41.043 19.500 C 40.836 19.500,40.516 19.651,40.331 19.835 C 40.147 20.020,39.809 20.186,39.581 20.205 C 39.212 20.236,39.100 20.357,39.139 20.686 C 39.146 20.742,39.024 20.788,38.868 20.788 C 38.084 20.787,37.833 20.853,37.833 21.062 C 37.833 21.202,37.562 21.334,37.139 21.402 C 36.757 21.463,36.339 21.641,36.210 21.798 C 36.064 21.976,36.024 21.989,36.103 21.833 C 36.207 21.631,36.184 21.621,35.985 21.782 C 35.850 21.891,35.554 22.015,35.328 22.059 C 34.667 22.184,34.328 22.357,34.427 22.517 C 34.478 22.600,34.328 22.676,34.093 22.688 C 33.400 22.721,33.357 22.737,33.132 23.037 C 32.970 23.254,32.639 23.332,31.797 23.353 C 30.993 23.373,30.590 23.463,30.366 23.672 C 30.194 23.832,29.733 24.000,29.341 24.045 C 28.948 24.090,28.564 24.230,28.486 24.355 C 28.375 24.536,27.561 24.589,24.564 24.610 C 20.416 24.639,20.376 24.634,20.154 24.049 C 19.978 23.587,20.141 21.798,20.347 21.925 C 20.422 21.972,20.573 21.838,20.683 21.630 C 20.792 21.421,20.984 21.190,21.108 21.117 C 21.232 21.043,21.333 20.867,21.333 20.724 C 21.333 20.570,21.428 20.501,21.567 20.554 C 21.706 20.607,21.835 20.513,21.885 20.322 C 21.939 20.115,22.114 20.000,22.375 20.000 C 22.599 20.000,22.912 19.856,23.072 19.679 C 23.232 19.503,23.506 19.386,23.681 19.419 C 23.955 19.472,24.058 19.350,24.034 19.000 C 24.030 18.954,24.190 18.906,24.389 18.894 C 25.661 18.812,26.243 18.682,26.420 18.441 C 26.543 18.272,26.857 18.167,27.237 18.167 C 27.605 18.167,27.812 18.100,27.750 18.000 C 27.693 17.908,27.764 17.833,27.907 17.833 C 28.050 17.833,28.167 17.758,28.167 17.667 C 28.167 17.575,28.392 17.500,28.667 17.500 C 28.942 17.500,29.311 17.356,29.488 17.179 C 29.725 16.942,30.084 16.847,30.863 16.816 C 31.553 16.789,31.979 16.691,32.098 16.531 C 32.197 16.397,32.535 16.269,32.848 16.246 C 33.161 16.223,33.473 16.196,33.542 16.185 C 33.610 16.175,33.667 16.035,33.667 15.875 C 33.668 15.645,33.835 15.573,34.459 15.536 C 35.603 15.468,35.846 15.415,35.974 15.209 C 36.037 15.107,36.397 14.995,36.774 14.960 C 37.152 14.925,37.587 14.770,37.742 14.615 C 37.990 14.367,38.484 14.285,39.705 14.288 C 39.863 14.289,39.957 14.233,39.915 14.164 C 39.748 13.894,40.305 13.685,41.284 13.650 C 42.120 13.620,42.323 13.556,42.389 13.306 C 42.452 13.063,42.632 13.000,43.263 13.000 C 43.750 13.000,44.169 12.899,44.345 12.739 C 44.509 12.591,45.056 12.445,45.609 12.401 C 46.145 12.358,46.696 12.313,46.833 12.301 C 46.971 12.289,47.159 12.176,47.252 12.050 C 47.358 11.907,47.808 11.808,48.459 11.786 C 49.031 11.766,49.499 11.689,49.499 11.615 C 49.500 11.541,49.564 11.520,49.642 11.568 C 49.720 11.616,49.927 11.548,50.100 11.417 C 50.678 10.980,56.167 11.064,56.167 11.510 " stroke="none" fill="#045c44" fill-rule="evenodd"></path><path id="path2" d="M22.792 24.623 C 23.273 24.657,24.060 24.657,24.542 24.623 C 25.023 24.589,24.629 24.562,23.667 24.562 C 22.704 24.562,22.310 24.589,22.792 24.623 M15.458 31.621 C 15.756 31.658,16.244 31.658,16.542 31.621 C 16.840 31.584,16.596 31.553,16.000 31.553 C 15.404 31.553,15.160 31.584,15.458 31.621 M38.386 31.625 C 40.386 31.651,43.611 31.651,45.553 31.625 C 47.495 31.598,45.858 31.576,41.917 31.576 C 37.975 31.576,36.386 31.598,38.386 31.625 M18.445 32.037 C 19.688 32.596,32.484 32.369,33.111 31.776 C 33.127 31.762,29.689 31.750,25.472 31.750 C 18.079 31.750,17.829 31.760,18.445 32.037 " stroke="none" fill="#044c4c" fill-rule="evenodd"></path><path id="path3" d="M45.000 0.750 C 44.843 0.939,44.841 1.000,44.991 1.000 C 45.101 1.000,45.303 0.887,45.440 0.750 C 45.655 0.536,45.656 0.500,45.449 0.500 C 45.316 0.500,45.114 0.612,45.000 0.750 M50.622 4.101 C 50.555 4.168,50.500 4.337,50.500 4.478 C 50.500 4.665,50.549 4.684,50.685 4.548 C 50.787 4.446,50.842 4.276,50.807 4.171 C 50.772 4.065,50.688 4.034,50.622 4.101 M30.667 7.083 C 30.551 7.223,30.533 7.333,30.626 7.333 C 30.718 7.333,30.886 7.221,31.000 7.083 C 31.116 6.944,31.134 6.833,31.041 6.833 C 30.949 6.833,30.781 6.946,30.667 7.083 M36.783 9.510 C 36.709 9.791,36.735 9.817,36.930 9.656 C 37.195 9.436,37.244 9.167,37.019 9.167 C 36.938 9.167,36.832 9.321,36.783 9.510 M42.743 10.178 C 42.683 10.276,42.678 10.401,42.733 10.456 C 42.788 10.511,42.833 10.464,42.833 10.351 C 42.833 10.239,42.903 10.190,42.988 10.243 C 43.074 10.296,43.191 10.263,43.248 10.169 C 43.306 10.076,43.241 10.000,43.103 10.000 C 42.966 10.000,42.804 10.080,42.743 10.178 M56.500 11.790 C 56.637 11.844,56.841 12.006,56.953 12.152 C 57.065 12.298,57.158 12.338,57.161 12.242 C 57.169 11.981,56.802 11.665,56.508 11.680 C 56.284 11.691,56.283 11.706,56.500 11.790 M39.911 14.006 C 39.609 14.340,39.610 14.343,40.002 14.199 C 40.220 14.118,40.428 13.965,40.464 13.859 C 40.566 13.551,40.245 13.637,39.911 14.006 M55.333 15.013 C 55.104 15.297,54.738 15.599,54.519 15.686 C 54.300 15.772,54.163 15.885,54.214 15.937 C 54.407 16.129,55.896 14.938,55.805 14.664 C 55.774 14.572,55.562 14.729,55.333 15.013 M27.458 14.948 C 27.298 14.990,27.167 15.096,27.167 15.184 C 27.167 15.272,26.998 15.412,26.792 15.495 C 26.434 15.639,26.438 15.646,26.885 15.656 C 27.176 15.663,27.311 15.599,27.243 15.489 C 27.183 15.391,27.290 15.270,27.483 15.219 C 27.676 15.169,27.833 15.062,27.833 14.981 C 27.833 14.900,27.815 14.842,27.792 14.853 C 27.769 14.863,27.619 14.906,27.458 14.948 M33.778 15.778 C 33.618 15.937,33.641 16.167,33.816 16.167 C 33.897 16.167,34.008 16.054,34.060 15.917 C 34.158 15.663,33.980 15.575,33.778 15.778 M29.622 17.167 C 29.465 17.350,29.378 17.500,29.429 17.500 C 29.645 17.500,30.167 17.142,30.167 16.994 C 30.167 16.733,29.928 16.809,29.622 17.167 M28.025 17.777 C 27.758 18.067,27.833 18.206,28.150 18.010 C 28.273 17.934,28.346 17.796,28.312 17.702 C 28.276 17.604,28.155 17.636,28.025 17.777 M23.083 19.667 C 22.917 19.850,22.866 20.000,22.968 20.000 C 23.071 20.000,23.235 19.850,23.333 19.667 C 23.431 19.483,23.483 19.333,23.448 19.333 C 23.414 19.333,23.249 19.483,23.083 19.667 M20.444 21.875 C 20.276 22.051,20.171 22.226,20.209 22.265 C 20.248 22.304,20.416 22.184,20.583 22.000 C 20.975 21.568,20.848 21.453,20.444 21.875 M15.597 22.811 C 15.533 22.915,15.555 23.000,15.646 23.000 C 15.737 23.000,15.835 23.206,15.864 23.458 C 15.901 23.777,15.949 23.838,16.024 23.658 C 16.159 23.331,15.763 22.543,15.597 22.811 M50.944 23.444 C 50.742 23.647,50.829 23.824,51.083 23.727 C 51.221 23.674,51.333 23.564,51.333 23.482 C 51.333 23.307,51.104 23.285,50.944 23.444 M49.751 24.166 C 49.585 24.350,49.526 24.500,49.620 24.500 C 49.830 24.500,50.246 24.024,50.134 23.912 C 50.090 23.867,49.917 23.982,49.751 24.166 M20.167 24.161 C 20.167 24.249,20.335 24.410,20.542 24.518 C 20.915 24.714,20.915 24.713,20.599 24.358 C 20.246 23.960,20.167 23.924,20.167 24.161 M28.292 24.115 C 28.131 24.157,28.000 24.261,28.000 24.346 C 28.000 24.581,28.327 24.530,28.607 24.250 C 28.860 23.997,28.816 23.978,28.292 24.115 M44.000 27.333 C 43.868 27.415,43.815 27.537,43.883 27.605 C 43.950 27.672,44.093 27.640,44.200 27.533 C 44.452 27.282,44.311 27.141,44.000 27.333 M17.622 31.833 C 17.779 32.017,17.994 32.167,18.100 32.167 C 18.206 32.167,18.386 32.279,18.500 32.417 C 18.800 32.778,30.334 32.790,31.288 32.429 C 31.634 32.299,32.254 32.145,32.667 32.088 C 33.079 32.031,33.604 31.877,33.833 31.748 C 34.305 31.481,34.062 31.421,33.450 31.654 C 32.104 32.166,29.901 32.333,24.528 32.333 L 19.056 32.333 18.237 31.917 C 17.786 31.689,17.399 31.501,17.377 31.501 C 17.355 31.500,17.465 31.650,17.622 31.833 " stroke="none" fill="#043448" fill-rule="evenodd"></path><path id="path4" d="M230.455 16.454 C 230.750 16.490,231.275 16.491,231.621 16.455 C 231.967 16.419,231.725 16.389,231.083 16.388 C 230.442 16.387,230.159 16.417,230.455 16.454 M265.958 16.455 C 266.348 16.490,266.985 16.490,267.375 16.455 C 267.765 16.420,267.446 16.392,266.667 16.392 C 265.887 16.392,265.569 16.420,265.958 16.455 M353.455 16.454 C 353.750 16.490,354.275 16.491,354.621 16.455 C 354.967 16.419,354.725 16.389,354.083 16.388 C 353.442 16.387,353.159 16.417,353.455 16.454 M109.542 17.957 C 109.402 18.254,109.345 19.115,109.368 20.575 L 109.402 22.750 109.500 20.417 L 109.598 18.083 109.632 20.458 L 109.667 22.833 110.375 22.805 L 111.083 22.777 110.463 22.712 L 109.842 22.647 109.796 20.081 C 109.757 17.882,109.720 17.578,109.542 17.957 M134.740 22.583 C 134.740 25.150,134.763 26.177,134.791 24.865 C 134.820 23.553,134.819 21.453,134.791 20.198 C 134.763 18.943,134.740 20.017,134.740 22.583 M108.833 20.417 C 108.833 21.806,108.897 22.667,109.000 22.667 C 109.103 22.667,109.167 21.806,109.167 20.417 C 109.167 19.028,109.103 18.167,109.000 18.167 C 108.897 18.167,108.833 19.028,108.833 20.417 M382.383 19.500 C 382.383 20.004,382.415 20.210,382.453 19.958 C 382.491 19.706,382.491 19.294,382.453 19.042 C 382.415 18.790,382.383 18.996,382.383 19.500 M114.218 19.750 C 114.219 20.300,114.250 20.505,114.287 20.205 C 114.325 19.906,114.324 19.456,114.286 19.205 C 114.248 18.955,114.217 19.200,114.218 19.750 M316.125 22.784 C 316.331 22.824,316.669 22.824,316.875 22.784 C 317.081 22.745,316.912 22.712,316.500 22.712 C 316.087 22.712,315.919 22.745,316.125 22.784 M108.836 26.708 C 108.838 28.196,108.891 28.835,109.000 28.667 C 109.218 28.330,109.218 24.500,109.000 24.500 C 108.897 24.500,108.834 25.346,108.836 26.708 M109.398 26.583 C 109.398 27.775,109.425 28.241,109.457 27.618 C 109.489 26.996,109.489 26.021,109.457 25.451 C 109.424 24.882,109.398 25.392,109.398 26.583 M109.733 26.917 C 109.734 28.292,109.759 28.832,109.791 28.117 C 109.822 27.403,109.822 26.278,109.790 25.617 C 109.759 24.957,109.733 25.542,109.733 26.917 M336.944 26.444 C 336.883 26.506,336.838 26.712,336.844 26.903 C 336.854 27.222,336.867 27.218,337.014 26.851 C 337.177 26.443,337.144 26.245,336.944 26.444 M49.208 31.615 C 49.369 31.657,49.631 31.657,49.792 31.615 C 49.952 31.573,49.821 31.539,49.500 31.539 C 49.179 31.539,49.048 31.573,49.208 31.615 M15.458 31.954 C 15.756 31.991,16.244 31.991,16.542 31.954 C 16.840 31.917,16.596 31.887,16.000 31.887 C 15.404 31.887,15.160 31.917,15.458 31.954 M38.386 31.958 C 40.386 31.985,43.611 31.985,45.553 31.958 C 47.495 31.931,45.858 31.910,41.917 31.910 C 37.975 31.910,36.386 31.932,38.386 31.958 M23.458 39.292 C 28.156 39.316,35.844 39.316,40.542 39.292 C 45.240 39.267,41.396 39.247,32.000 39.247 C 22.604 39.247,18.760 39.267,23.458 39.292 " stroke="none" fill="#042450" fill-rule="evenodd"></path></g></svg>